<?xml version="1.0" encoding="utf-8"?>
<!-- Generator: Adobe Illustrator 21.1.0, SVG Export Plug-In . SVG Version: 6.00 Build 0)  -->
<svg version="1.1" id="Layer_1" xmlns="http://www.w3.org/2000/svg" xmlns:xlink="http://www.w3.org/1999/xlink" x="0px" y="0px"
	 viewBox="0 0 39.2 39.2" style="enable-background:new 0 0 39.2 39.2;" xml:space="preserve">
<style type="text/css">
	.st0{fill:#4F4F4F;}
	.st1{fill:none;stroke:#4F4F4F;stroke-width:2;stroke-miterlimit:10;}
</style>
<path class="st0" d="M24.1,16H21v-2c0-0.8,0.5-0.9,0.9-0.9s2.2,0,2.2,0V9.6h-3c-3.4,0-4.1,2.5-4.1,4.1V16h-2v3.5h2
	c0,4.5,0,9.9,0,9.9h4c0,0,0-5.4,0-9.9h2.8L24.1,16z"/>
<path class="st1" d="M19.6,1C9.3,1,1,9.3,1,19.6s8.3,18.6,18.6,18.6s18.6-8.3,18.6-18.6S29.9,1,19.6,1L19.6,1z"/>
</svg>
