<?xml version="1.0" encoding="utf-8"?>
<!-- Generator: Adobe Illustrator 21.1.0, SVG Export Plug-In . SVG Version: 6.00 Build 0)  -->
<svg version="1.1" id="Layer_1" xmlns="http://www.w3.org/2000/svg" xmlns:xlink="http://www.w3.org/1999/xlink" x="0px" y="0px"
	 viewBox="0 0 39.8 39.8" style="enable-background:new 0 0 39.8 39.8;" xml:space="preserve">
<style type="text/css">
	.st0{fill:#4F4F4F;}
	.st1{fill:none;stroke:#4F4F4F;stroke-width:2;stroke-miterlimit:10;}
</style>
<g>
	<path class="st0" d="M19.9,12c2.6,0,2.9,0,3.9,0c0.9,0,1.4,0.2,1.8,0.3c0.4,0.2,0.8,0.4,1.1,0.7c0.3,0.3,0.5,0.7,0.7,1.1
		c0.1,0.3,0.3,0.9,0.3,1.8c0,1,0,1.3,0,3.9s0,2.9,0,3.9c0,0.9-0.2,1.4-0.3,1.8c-0.2,0.4-0.4,0.8-0.7,1.1c-0.3,0.3-0.7,0.5-1.1,0.7
		c-0.3,0.1-0.9,0.3-1.8,0.3c-1,0-1.3,0-3.9,0s-2.9,0-3.9,0c-0.9,0-1.4-0.2-1.8-0.3c-0.4-0.2-0.8-0.4-1.1-0.7
		c-0.3-0.3-0.5-0.7-0.7-1.1c-0.1-0.3-0.3-0.9-0.3-1.8c0-1,0-1.3,0-3.9s0-2.9,0-3.9c0-0.9,0.2-1.4,0.3-1.8c0.2-0.4,0.4-0.8,0.7-1.1
		s0.7-0.5,1.1-0.7c0.3-0.1,0.9-0.3,1.8-0.3C17,12,17.3,12,19.9,12 M19.9,10.3c-2.6,0-3,0-4,0s-1.7,0.2-2.3,0.4s-1.2,0.6-1.7,1.1
		s-0.9,1.1-1.1,1.7c-0.2,0.6-0.4,1.3-0.4,2.3s0,1.4,0,4s0,3,0,4s0.2,1.7,0.4,2.3c0.2,0.6,0.6,1.2,1.1,1.7s1.1,0.9,1.7,1.1
		c0.6,0.2,1.3,0.4,2.3,0.4s1.4,0,4,0s3,0,4,0s1.7-0.2,2.3-0.4c0.6-0.2,1.2-0.6,1.7-1.1s0.9-1.1,1.1-1.7s0.4-1.3,0.4-2.3s0-1.4,0-4
		s0-3,0-4s-0.2-1.7-0.4-2.3c-0.2-0.6-0.6-1.2-1.1-1.7s-1.1-0.9-1.7-1.1c-0.6-0.2-1.3-0.4-2.3-0.4C22.9,10.3,22.5,10.3,19.9,10.3"/>
	<path class="st0" d="M19.9,15c-2.7,0-5,2.2-5,5s2.2,5,5,5s5-2.2,5-5S22.7,15,19.9,15 M19.9,23.1c-1.8,0-3.2-1.4-3.2-3.2
		s1.4-3.2,3.2-3.2c1.8,0,3.2,1.4,3.2,3.2S21.7,23.1,19.9,23.1"/>
	<path class="st0" d="M26.2,14.8c0,0.6-0.5,1.1-1.1,1.1S24,15.4,24,14.8s0.5-1.1,1.1-1.1C25.7,13.6,26.2,14.1,26.2,14.8"/>
</g>
<path class="st1" d="M19.9,1C9.5,1,1,9.5,1,19.9s8.5,18.9,18.9,18.9s18.9-8.5,18.9-18.9S30.4,1,19.9,1L19.9,1z"/>
</svg>
