<?xml version="1.0" encoding="utf-8"?>
<!-- Generator: Adobe Illustrator 22.0.1, SVG Export Plug-In . SVG Version: 6.00 Build 0)  -->
<svg version="1.1" id="Layer_3" xmlns="http://www.w3.org/2000/svg" xmlns:xlink="http://www.w3.org/1999/xlink" x="0px" y="0px"
	 viewBox="0 0 252.3 126" style="enable-background:new 0 0 252.3 126;" xml:space="preserve">
<style type="text/css">
	.st0{enable-background:new    ;}
	.st1{fill:#FFFFFF;}
	.st2{fill:none;stroke:#FFFFFF;stroke-miterlimit:10;}
</style>
<g class="st0">
	<path class="st1" d="M6.3,50.4V5.3h3V48H23v2.4H6.3z"/>
	<path class="st1" d="M52.8,50.4C51.5,50.8,50,51,48.3,51c-1.7,0-3.2-0.2-4.5-0.7c-1.3-0.4-2.4-1.1-3.2-1.8c-0.8-0.8-1.5-1.7-2-2.9
		s-0.9-2.4-1.1-3.7c-0.2-1.3-0.3-2.8-0.3-4.4V17.9c0-1.6,0.1-3,0.3-4.3c0.2-1.3,0.6-2.5,1.1-3.6c0.5-1.1,1.2-2,2.1-2.8
		c0.8-0.7,1.9-1.3,3.2-1.8c1.3-0.4,2.8-0.6,4.4-0.6c2.1,0,3.9,0.3,5.3,1c1.5,0.6,2.6,1.6,3.5,2.7c0.8,1.2,1.4,2.6,1.8,4.1
		c0.4,1.5,0.6,3.3,0.6,5.3v19.8c0,1.6-0.1,3.1-0.3,4.4s-0.6,2.5-1.1,3.7s-1.2,2.1-2,2.9C55.2,49.3,54.1,49.9,52.8,50.4z M44.3,47.8
		c1.1,0.5,2.4,0.7,4,0.7s2.9-0.2,4-0.7c1.1-0.5,1.9-1.2,2.5-2.1s1-2,1.2-3.2c0.2-1.2,0.4-2.6,0.4-4.2V17.4c0-1.6-0.1-3-0.4-4.2
		c-0.2-1.2-0.6-2.2-1.2-3.2c-0.6-0.9-1.4-1.6-2.5-2.1c-1.1-0.5-2.4-0.7-4-0.7s-2.9,0.2-4,0.7c-1.1,0.5-1.9,1.2-2.5,2.1
		c-0.6,0.9-1,2-1.2,3.2c-0.2,1.2-0.4,2.6-0.4,4.2v20.8c0,1.6,0.1,3,0.4,4.2c0.2,1.2,0.6,2.2,1.2,3.2C42.4,46.6,43.2,47.3,44.3,47.8z
		"/>
	<path class="st1" d="M87.9,51c-1.7,0-3.3-0.2-4.6-0.7c-1.3-0.5-2.4-1.1-3.2-1.9c-0.8-0.8-1.5-1.8-2-3c-0.5-1.2-0.8-2.4-1-3.7
		c-0.2-1.3-0.3-2.7-0.3-4.3V18.3c0-1.6,0.1-3.1,0.3-4.4c0.2-1.3,0.6-2.5,1.1-3.7c0.5-1.2,1.2-2.1,2-2.9c0.8-0.8,1.9-1.4,3.2-1.8
		c1.3-0.4,2.8-0.7,4.5-0.7c1.9,0,3.6,0.3,4.9,0.9c1.4,0.6,2.4,1.5,3.2,2.6c0.8,1.2,1.3,2.5,1.7,4c0.3,1.5,0.5,3.2,0.5,5.2v2.3h-2.9
		v-2.3c0-3.4-0.5-6-1.6-7.7s-3-2.5-5.8-2.5c-1.6,0-2.9,0.2-4,0.7s-1.9,1.2-2.4,2.2c-0.6,1-1,2.1-1.2,3.3s-0.3,2.7-0.3,4.4v20
		c0,1.4,0.1,2.6,0.2,3.7c0.1,1.1,0.4,2,0.8,2.9c0.4,0.9,0.8,1.6,1.4,2.2c0.6,0.6,1.4,1,2.3,1.3s2,0.5,3.2,0.5c1.5,0,2.7-0.2,3.7-0.7
		s1.7-1.2,2.3-2.1c0.5-0.9,0.9-2,1.1-3.2c0.2-1.2,0.3-2.6,0.3-4.2v-2.7h2.9v2.2c0,1.6-0.1,3.1-0.3,4.3c-0.2,1.3-0.5,2.5-1,3.6
		c-0.5,1.1-1.1,2.1-1.9,2.8c-0.8,0.8-1.7,1.3-3,1.8S89.4,51,87.9,51z"/>
	<path class="st1" d="M113.6,50.4l9.5-45.1h3.5l9.6,45.1h-3L130.8,38h-11.7l-2.4,12.5H113.6z M119.5,35.7h10.8L124.9,9L119.5,35.7z"
		/>
	<path class="st1" d="M153.1,50.4V5.3h3V48h13.6v2.4H153.1z"/>
	<path class="st1" d="M184.9,50.4V5.3h3V48h13.6v2.4H184.9z"/>
	<path class="st1" d="M224,50.4V36L213.6,5.3h3.1l8.8,27.1L234,5.3h3.1L227,36v14.4H224z"/>
</g>
<g class="st0">
	<path class="st2" d="M15.6,106.9c-4.2,0-7.3-1.2-9.4-3.5c-2.1-2.3-3.2-5.9-3.4-10.7l8-1.4c0,2.8,0.4,4.9,1.1,6.4
		c0.7,1.4,1.8,2.1,3.3,2.1c1.1,0,1.9-0.3,2.3-1c0.5-0.7,0.7-1.6,0.7-2.7c0-1.8-0.4-3.3-1.2-4.5c-0.8-1.2-2-2.6-3.7-4.1l-4.9-4.2
		c-1.2-1.1-2.2-2.1-3-3c-0.8-0.9-1.4-2.1-1.9-3.6c-0.5-1.4-0.8-3.1-0.8-4.8c0-3.7,1.1-6.5,3.2-8.5c2.2-2,5.1-3,8.9-3
		c1.3,0,2.4,0.1,3.5,0.4s2,0.6,2.7,1c0.8,0.4,1.4,1,2,1.6c0.6,0.7,1.1,1.3,1.4,2s0.7,1.5,0.9,2.4c0.3,0.9,0.4,1.7,0.5,2.5
		c0.1,0.8,0.2,1.7,0.2,2.6l-7.9,1.3c0-0.9-0.1-1.7-0.1-2.3c-0.1-0.6-0.2-1.3-0.3-1.9c-0.2-0.7-0.4-1.2-0.6-1.6s-0.6-0.7-1-0.9
		c-0.4-0.2-1-0.3-1.6-0.3c-1,0.1-1.8,0.4-2.4,1.2s-0.8,1.6-0.8,2.6c0,0.8,0.1,1.6,0.3,2.2c0.2,0.7,0.5,1.3,0.9,1.9
		c0.4,0.6,0.8,1.1,1.2,1.4c0.4,0.4,0.9,0.9,1.5,1.5l4.8,4.2c1,0.9,1.9,1.8,2.7,2.6s1.5,1.8,2.1,2.9c0.7,1.1,1.2,2.3,1.5,3.6
		c0.4,1.3,0.5,2.7,0.5,4.2c0,3.3-1.1,6-3.2,8.1C21.9,105.8,19.1,106.9,15.6,106.9z"/>
	<path class="st2" d="M49.7,106.9c-2.5,0-4.6-0.3-6.3-1s-3.1-1.7-4.1-3c-1-1.3-1.8-2.9-2.2-4.7c-0.5-1.8-0.7-3.9-0.7-6.3V75.2
		c0-2.4,0.2-4.5,0.7-6.3c0.5-1.8,1.2-3.3,2.2-4.6c1-1.3,2.4-2.3,4.1-2.9s3.8-1,6.3-1c4.8,0,8.2,1.2,10.3,3.7
		c2.1,2.5,3.1,6.2,3.1,11.1V92c0,4.9-1,8.6-3.1,11.1S54.5,106.9,49.7,106.9z M47.9,99.9c0.5,0.2,1.1,0.3,1.8,0.3
		c0.7,0,1.3-0.1,1.8-0.3c0.5-0.2,0.9-0.5,1.2-0.9c0.3-0.3,0.5-0.8,0.7-1.4c0.2-0.6,0.3-1.1,0.3-1.6c0-0.5,0.1-1.1,0.1-1.9V73
		c0-0.7,0-1.4-0.1-1.9s-0.1-1.1-0.3-1.6s-0.4-1-0.7-1.3c-0.3-0.3-0.7-0.6-1.2-0.8c-0.5-0.2-1.1-0.3-1.8-0.3c-0.7,0-1.3,0.1-1.8,0.3
		c-0.5,0.2-0.9,0.5-1.1,0.8c-0.3,0.3-0.5,0.8-0.6,1.3c-0.2,0.6-0.3,1.1-0.3,1.6c0,0.5-0.1,1.1-0.1,1.9v21.2c0,0.7,0,1.4,0.1,1.9
		c0,0.5,0.1,1.1,0.3,1.6c0.2,0.6,0.4,1,0.6,1.4C47.1,99.4,47.5,99.7,47.9,99.9z"/>
	<path class="st2" d="M86.9,106.9c-2.5,0-4.7-0.3-6.4-1c-1.7-0.7-3.1-1.7-4-3c-1-1.4-1.7-2.9-2.1-4.7s-0.6-4-0.6-6.5V61h9v31.8
		c0,0.9,0,1.6,0.1,2.2c0,0.6,0.1,1.3,0.3,2c0.2,0.7,0.4,1.3,0.7,1.7s0.7,0.8,1.2,1.1c0.5,0.3,1.1,0.4,1.8,0.4c0.7,0,1.3-0.1,1.8-0.4
		c0.5-0.3,0.9-0.6,1.2-1.1c0.3-0.4,0.5-1,0.7-1.7c0.2-0.7,0.3-1.3,0.3-1.9c0-0.6,0.1-1.3,0.1-2.2V61h9v30.6c0,2.6-0.2,4.7-0.6,6.5
		s-1.1,3.4-2,4.7c-1,1.4-2.3,2.4-4,3C91.6,106.6,89.5,106.9,86.9,106.9z"/>
	<path class="st2" d="M111.4,106.3V61h11.4c2.4,0,4.5,0.2,6.2,0.6c1.7,0.4,3.3,1,4.6,1.9c1.3,0.9,2.3,2.1,3,3.7c0.7,1.6,1,3.5,1,5.8
		c0,2.9-0.4,5.3-1.2,7.1c-0.8,1.8-2.3,3.2-4.3,4.1l6.3,22.1H129l-5.2-20.4h-3.2v20.4H111.4z M120.6,80.3h2.3c2.2,0,3.8-0.5,4.7-1.6
		c0.9-1,1.4-2.7,1.4-5c0-2.2-0.4-3.9-1.2-4.9c-0.8-1-2.3-1.5-4.4-1.5h-2.8V80.3z"/>
	<path class="st2" d="M161.3,106.9c-2.5,0-4.6-0.4-6.3-1.1s-3.1-1.8-4.1-3.2c-1-1.4-1.7-3-2.2-4.8c-0.4-1.8-0.7-3.9-0.7-6.2v-16
		c0-2.5,0.2-4.6,0.7-6.4c0.4-1.8,1.2-3.4,2.2-4.8c1-1.4,2.4-2.4,4.1-3.1c1.7-0.7,3.9-1,6.3-1c2.4,0,4.4,0.3,6,0.9
		c1.7,0.6,3,1.5,3.9,2.7c1,1.2,1.6,2.5,2.1,4.1s0.6,3.3,0.6,5.4v3.9h-9v-4.3c0-0.5,0-0.9,0-1.1c0-0.2,0-0.5,0-1s0-0.8-0.1-1
		c0-0.2-0.1-0.5-0.2-0.8c-0.1-0.4-0.2-0.6-0.3-0.8c-0.1-0.2-0.3-0.4-0.5-0.6s-0.4-0.4-0.6-0.5c-0.2-0.1-0.5-0.2-0.9-0.3
		s-0.7-0.1-1.1-0.1c-0.7,0-1.3,0.1-1.8,0.4c-0.5,0.2-0.9,0.6-1.2,0.9c-0.3,0.4-0.5,0.9-0.6,1.5c-0.1,0.6-0.2,1.2-0.3,1.7
		s-0.1,1.2-0.1,2v20.2c0,2.2,0.3,3.8,0.8,4.9c0.6,1,1.6,1.6,3.1,1.6c0.6,0,1.1-0.1,1.5-0.2s0.8-0.4,1.1-0.7c0.3-0.3,0.5-0.7,0.6-1
		c0.2-0.3,0.3-0.8,0.3-1.4s0.1-1.1,0.1-1.5s0-1,0-1.7v-4.4h9v3.8c0,2.1-0.2,3.9-0.6,5.5s-1.1,3-2,4.3c-0.9,1.3-2.2,2.2-3.9,2.9
		S163.7,106.9,161.3,106.9z"/>
	<path class="st2" d="M184.5,106.3V61h19.7v6.4h-10.5v12h8.2v6.4h-8.2V100h10.6v6.3H184.5z"/>
	<path class="st2" d="M214,106.3V61h11c2.9,0,5.2,0.3,7.1,0.8s3.4,1.4,4.6,2.6c1.1,1.2,1.9,2.7,2.4,4.4c0.5,1.7,0.7,3.9,0.7,6.5
		v16.3c0,2.6-0.2,4.8-0.7,6.6c-0.5,1.8-1.3,3.3-2.4,4.5c-1.1,1.2-2.6,2.2-4.5,2.7c-1.9,0.6-4.2,0.8-7,0.8H214z M223.2,99.9h1.9
		c0.6,0,1.2,0,1.7-0.1c0.5-0.1,0.9-0.2,1.3-0.4c0.4-0.2,0.7-0.4,0.9-0.6c0.3-0.2,0.5-0.5,0.6-0.8c0.2-0.4,0.3-0.7,0.4-1
		s0.2-0.8,0.2-1.3c0-0.6,0.1-1.1,0.1-1.5c0-0.4,0-1,0-1.8V74.2c0-1.1,0-1.9-0.1-2.6c-0.1-0.6-0.2-1.3-0.4-1.8
		c-0.2-0.6-0.5-1-0.9-1.3c-0.4-0.3-0.9-0.5-1.6-0.7c-0.7-0.2-1.5-0.3-2.5-0.3h-1.8V99.9z"/>
</g>
</svg>
