<?xml version="1.0" encoding="utf-8"?>
<!-- Generator: Adobe Illustrator 21.1.0, SVG Export Plug-In . SVG Version: 6.00 Build 0)  -->
<svg version="1.1" id="Layer_1" xmlns="http://www.w3.org/2000/svg" xmlns:xlink="http://www.w3.org/1999/xlink" x="0px" y="0px"
	 viewBox="0 0 294.9 315" style="enable-background:new 0 0 294.9 315;" xml:space="preserve">
<style type="text/css">
	.st0{fill-rule:evenodd;clip-rule:evenodd;fill:#B4892D;}
</style>
<path class="st0" d="M282,0c2.3,4.8,19.8,15.6,10,43c-48.2,9.1-81,42.1-102,79c10.4,15.8,60.8,57.8,64,63c-3,5.8-114,124.8-143,130
	C107.5,314.6-0.7,201,0,198c1-11.2,112.2-27.9,167.8-97.8C184.1,77.6,255.6,1.3,282,0z M38,214c-11.6-0.1-12.1-16.2-1-16
	C46.8,198,48.3,213.8,38,214z"/>
</svg>
