<?xml version="1.0" encoding="utf-8"?>
<!-- Generator: Adobe Illustrator 22.1.0, SVG Export Plug-In . SVG Version: 6.00 Build 0)  -->
<svg version="1.1" id="Layer_2" xmlns="http://www.w3.org/2000/svg" xmlns:xlink="http://www.w3.org/1999/xlink" x="0px" y="0px"
	 viewBox="0 0 116.6 126.4" style="enable-background:new 0 0 116.6 126.4;" xml:space="preserve">
<style type="text/css">
	.st0{display:none;fill:none;stroke:#FFFFFF;}
	.st1{font-family:'Oswald-DemiBold';}
	.st2{font-size:56.3525px;}
	.st3{fill:none;stroke:#FFFFFF;}
	.st4{display:none;fill:#FFFFFF;}
	.st5{font-family:'Oswald-Light';}
	.st6{letter-spacing:1;}
	.st7{fill:#FFFFFF;}
</style>
<text transform="matrix(1 0 0 1 0.5 106.4868)" class="st0 st1 st2">MEAT</text>
<g>
	<path class="st3" d="M3.8,106.5l0.7-45.6h9.8L20,90l6.1-29.1h9.5l0.7,45.6h-6.8l-0.6-30.8L23,106.5h-5.7l-6.1-31l-0.6,31H3.8z"/>
	<path class="st3" d="M42.4,106.5V60.9h19.9v6.4H51.7v12.1h8.2v6.5h-8.2v14.3h10.7v6.3H42.4z"/>
	<path class="st3" d="M64.3,106.5l8.9-45.6h10.2l8.9,45.6h-8.6l-1.7-10.1h-7.2L73,106.5H64.3z M75.6,90.6H81l-2.7-18.2L75.6,90.6z"
		/>
	<path class="st3" d="M99.2,106.5V67.7h-7.3v-6.9h23.7v6.9h-7.2v38.8H99.2z"/>
</g>
<text transform="matrix(1 0 0 1 12.2461 50.9868)" class="st4 st5 st2 st6">FINE</text>
<g>
	<path class="st7" d="M16.2,51V5.4h16.5v3.2H20.5v17.1h10.1v3.2H20.5V51H16.2z"/>
	<path class="st7" d="M39.5,51V5.4h4.2V51H39.5z"/>
	<path class="st7" d="M53.3,51V5.4h3.2l14.5,35.4V5.4h3.7V51h-3L57,15.2V51H53.3z"/>
	<path class="st7" d="M84,51V5.4h16.5v3.3H88.3v17.1h10v3.2h-10v18.8h12.3V51H84z"/>
</g>
</svg>
