<?xml version="1.0" encoding="utf-8"?>
<!-- Generator: Adobe Illustrator 22.0.1, SVG Export Plug-In . SVG Version: 6.00 Build 0)  -->
<svg version="1.1" id="Kansas" xmlns="http://www.w3.org/2000/svg" xmlns:xlink="http://www.w3.org/1999/xlink" x="0px" y="0px"
	 viewBox="0 0 300 109.4" style="enable-background:new 0 0 300 109.4;" xml:space="preserve">
<style type="text/css">
	.st0{fill:#FFFFFF;}
	.st1{display:none;enable-background:new    ;}
	.st2{display:inline;fill:#FFFFFF;}
	.st3{enable-background:new    ;}
</style>
<g id="LOGO">
	<path class="st0" d="M67.7,0.7c0.2,0.2,0.2,0.6-0.1,0.8c-4.1,3.9-8.1,2.9-10,2.9c-0.2,0.3,0,16.3,0.3,16.7c0.2,0.2,0.6,0.2,1,0.3
		c0.2,0.1,0.2,0.3,0.2,0.5c-1.2,0.6-4.3,1.5-4.5,1.4c-0.1-0.1-0.1-0.1,0.1-0.6c0.1-0.2,0.6-0.4,0.6-0.9c0.1-0.4,0.1-17.8-0.2-18
		c-2.1-1.1-7.2,0.6-8,1.4c-0.1,0.1-0.3,0.1-0.4-0.1c-0.2-0.2,0-0.5,0.1-0.6c0.6-0.4,2.8-2,8.6-3c1.8-0.3,3.9,0.8,6.3,1
		c1.5,0.2,3,0.4,5.1-1.7C67.3,0.7,67.4,0.5,67.7,0.7z"/>
	<path class="st0" d="M39.5,6.3c0.1,0,0.2,0,0.2,0c-0.2,0.6,0.8,1.1,0.6,1.4c-1.4,1.8-1.4,3-0.6,3.9c0.3,0.3,0.3,0.6,0,0.9
		c-0.2,0.1-0.3-0.3-0.6-0.6c-0.2-0.4-0.2-1-0.6-0.8c-0.4,0.2-2.8,1.4-3.5,1.8c0,2.8,0.1,5.6,0.1,6.4c0.6-0.1,1.6,0,2-0.5
		c0.8-0.8,0.8-1.5,1-1.6c0.8,0.3,0.6,1.3,0.6,2c0.1,1,0.6,1.6-0.3,1.8c-0.6-0.9-2-0.6-3-0.3c-0.2,1.1-0.1,7.1,0.1,7.2
		c1.8-0.3,4.1-0.6,4.5-3c0.1-0.1,0.1-0.1,0.2-0.1c0.1,0.1,0.2,0.1,0.2,0.2c0.1,0.9,0,3.2-1,3.6c-1.4,0.6-5.2,1.7-7.1,2.1
		c-0.1,0.1-0.6-0.2-0.4-0.4c0.2-0.2,1-0.6,1-1.3c0.1-4.1,0-13.7-0.1-15c-1,0.6-1.6,0.3-1.5,0.1c1.6-2,1.3-1.8,1.7-2.3
		c1.8-0.8,4.2-1.9,5.4-2.5C38.5,9.1,39.2,8.3,39.5,6.3z"/>
	<path class="st0" d="M53.1,22.9c0.2,0.3,1,0.2,1.3,0.3c-0.1,0.1-0.1,0.2-0.1,0.3c-0.4,0.2-2.4,0.8-3.1,1.1c0,0-0.4,0.2-0.4-0.2
		c0.1-0.6,1.3-1,1.1-1.3c-2.1-5.5-4.1-5.3-7.1-5.3c-0.3,0-0.6,5.1-0.9,6.9c-0.2,1.4,0.6,0.9,1.2,1.2c0.6,0.2,0.2,0.6-0.2,0.9
		c-1.1,0.4-2.9,0.9-4.2,1.3c-0.3,0.1-0.6-0.2-0.5-0.3c0.1-0.2,1.2-0.6,1.3-1.4C42.2,21.5,43.6,8,44,6.2c-0.3,0.1-0.3-0.2-0.2-0.5
		c0.3-0.4,1.2-0.9,1.8-1.1C45.7,4.5,45.9,5,46,5.2c-0.1,0.9-0.2,2.4-0.3,3.2C46.7,9.8,52.1,20.7,53.1,22.9z M45.5,10.1
		c-0.2,1.2-0.6,4.1-0.6,4.7c1-0.1,2.5,0.2,3.8,1.6C48.2,15.1,46,10.8,45.5,10.1z"/>
	<path class="st0" d="M16,54c-0.2-0.6-0.3-1.8-1.8-2.3c-0.6-0.2-1.2-0.2-1.6-0.2c-0.8,0.2-1,0.9-1.2,0.6c-0.1-0.1-0.2-0.6,1.1-1
		c1.4-0.4,3.7,0.2,4.9-2c0.6-1.1,0.8-2.8,0.5-4.1c-0.3-1.4-1.5-2.1-0.9-2.7c0.2-0.2,3.6,3.3,4.2,4.5c1.8,3.3-1.5,5.4-1.5,8.7
		c0,2.4,1.9,4.3,3.3,5.2c2.5,1.7,6.9,1.3,8.8-1.8c1.3-1.9,1.8-5.1,0-7.9c-1.6-2.5-6.4-3.5-8.5-4.5c-4.9-2.5-5.7-6.2-5.1-8.6
		c0.8-3.3,4.5-4.9,6.4-5.1c0.1-4.9,0-6,0.2-13.4c-0.9,0.9-9.3,10.7-8.6,12.6c0.6,1.5,2.7,0.1,3.2-1.1c0.1,0.1,0.3,0.2,0.5,0.4
		c-1.3,3.3-4.7,3.5-5.9,1.8c-0.9-1.4,0.2-4.2,1.5-5.9c-2.9-3.2-5.9-4.1-7.2-4.5c-0.2,0.3-0.6,29.2-0.2,29.6c1.1,0.1,1-1.1,2.3-1.1
		c-2,5.1-5.7,1.5-7.6,5.5c-0.6-0.1,0.1-2.5,2.1-3.9c0-11.7,0-28,0-31.4c-0.6-1.9-3.5-0.9-4.5-0.2c-0.1,0.1-0.6-0.5-0.2-0.6
		c2.9-2.3,5.7-4,17.7,3c8.4-12,13.5-12.9,13.8-12.1c-1.6,1.2-3.6,3.3-3.9,4.2c-0.2,3.3-0.1,15.6,0.2,17.9c1.1,0.6,2.1,1.3,2.7,1.7
		c0.4-0.9,0.9-1.7,1.3-1.4c0.5,0.3-0.6,2.1,0,4.1c1,2.4,2,6.4,0.2,6.4c-0.9,0,0.5-4.7-5.5-7.3c-4.3-1.9-5.3,1.4-5.4,1.7
		c0-0.1-1.7,3.3,5.9,6c13.8,5.4,9.2,18.9,1.7,21.2C19.7,68.9,13.6,57.7,16,54z"/>
	<path class="st0" d="M58.3,37.4c-0.2,0.2-0.6-0.1-0.9-0.6c-0.2-0.6,0.1-2-0.1-2.1c-0.2-0.2-5.4-0.3-5.7,0.2c-0.4,1.9-0.2,6,0,6.3
		c0.1,0.2,2.3,0.2,3.4,0.1c0.6-0.1,0.2-0.8,0.2-0.9c0.6,0,0.6,0.4,0.6,1.3c0.1,0.6,0.2,1.2,0.2,1.6c0,0.5-0.6,0.6-0.9,0.6
		c-0.2-0.2,0.3-1-0.2-1c-1.3-0.1-3.5-0.1-3.5,0c-0.2,0.4-0.2,5.7-0.1,6c0.1,0.2,2.9,0.2,5.3,0.2c0.6,0,1.7-1.5,2-1.6
		c0.3,0,0.6,0,0.8,0.4c-0.2,1-1.2,2.5-1.8,2.5c-4.6-0.3-8.1,0.1-8.4-0.2C49.3,50,50,49.4,50,48.8c0-0.6,0-8.9,0-13.7
		c-0.3-0.4-0.8-0.3-1-0.6c-0.1-0.2,0.6-0.6,0.8-1c0.2-0.2,5.1,0.2,7.6-0.2c1.4-0.2,0.9-1,1-1.1c0.1,0,1,0.6,0.6,1.5
		c-0.2,1-0.8,1.3-0.9,1.8C58,36.6,58.4,37.1,58.3,37.4z"/>
	<path class="st0" d="M47.1,33.5c-0.2-0.2-3.3-0.2-3.5,0c-0.1,0.1-0.5,0.3-0.3,0.6c0.2,0.6,1,0.6,1.2,1c0.1,2.3,0.3,4.6,0.2,5.5
		c-0.9,0.2-1.4,0-4.7,0c-0.3-2.3-0.2-4.5-0.2-5.7c0.1-0.6,1.3-0.6,1.5-0.9c0.1-0.2-0.3-0.6-0.2-0.6c-1.9,0-3.2,0-4.4,0
		c-0.1,0.2-0.6,0.4-0.4,0.6c0,0.1,1.4,0.3,1.4,1c0.5,3.3,0.2,12.3,0.2,13.1c0,0.6-1.2,1.3-1.3,1.7c0,0,0.2,0.5,0.6,0.5
		c1,0,3.1,0,3.5,0c0.4,0,0.6-0.2,0.6-0.5c0.1-0.4-1.6-1-1.5-1.7c0-1,0-4.3,0-6.3c0,0,4.9,0.1,4.9,0c0.1,1.1,0.1,5,0.1,6.3
		c0,0.6-1.8,1.4-2,1.8c-0.1,0.2,0.2,0.5,0.6,0.5c1,0.1,2.9-0.1,4.2,0c0.4,0,0.6-0.3,0.5-0.6c-0.6-0.5-1.6-1-1.6-1.6
		c0-3.5-0.2-10.7-0.2-13.1c0-0.6,1-0.6,1.1-1C47.7,33.8,47.1,33.6,47.1,33.5z"/>
	<path class="st0" d="M65.9,50.1c-1.2-0.1-5.5,0.1-5.9,0c0,0.1-0.2-0.4-0.2-0.6c0.5-0.2,1.1-0.4,1.4-1c0.3-0.8,0.2-12.7-0.1-13.5
		c-0.2-0.3-0.5-0.6-1.3-0.6c0-0.2,0-0.6,0-0.9c0.1-0.1,0.2-0.2,0.2-0.3c1.3-0.1,2.9,0,5.6,0c0.8,0,7.2,2.1,7.2,8.6
		C72.7,49.8,66.4,50.1,65.9,50.1z M62.9,34.7C62.7,35,62.7,47.9,63,48.2c0.2,0,8.2,0.6,8-6C70.7,33.8,63.4,34.7,62.9,34.7z"/>
	<path class="st0" d="M33.2,34.9c0.2,0,0.3,0.5,0.2,0.9c-0.5,2,1.5,4.6,1,7.4c-0.1,0.2-0.1,0.3-0.2,0.3c-0.2,0-0.2-0.2-0.1-0.4
		c0.2-2.6-1.7-5.7-1.3-7.4C33,34.7,33,34.9,33.2,34.9z"/>
	<path class="st0" d="M23.5,41.6c-0.2,0.2-0.4,0.1-0.6-0.3c-0.6-0.9-0.6-2.5-0.1-3.3c0.2-0.2,0.6-0.6,0.6-0.3
		c0.2,0.2-0.1,0.4-0.2,0.6c-0.3,0.2-0.6,1.7,0,2.7C23.5,41.3,23.6,41.5,23.5,41.6z"/>
	<path class="st0" d="M60.7,47.9L60.7,47.9C60.7,48,60.7,48,60.7,47.9C60.7,48,60.7,48,60.7,47.9C60.7,48,60.7,48,60.7,47.9z"/>
	<path class="st0" d="M37.4,52.6c0.2-0.1,0.2,0.2,0.2,0.2c1.6,4.5-0.4,9.9-4.2,12.5c-0.1,0.1-0.2,0.1-0.3,0c-0.1-0.1-0.1-0.2,0-0.2
		c1-1.2,5.8-4.9,4.2-12.3C37.3,52.7,37.2,52.6,37.4,52.6z"/>
	<path class="st0" d="M23.7,60.1c-0.2,0.2-0.6-0.2-1-0.4c-2-1.4-2.5-3.7-1.9-5.7c0.1-0.2,0.1-0.5,0.2-0.5c0.2,0,0.2,0.2,0.2,0.5
		c0,0.4-0.8,3.3,1.7,5.2C23.1,59.5,24,59.9,23.7,60.1z"/>
	<path class="st0" d="M63.5,35.4c0,1,0,11.5,0,12.3c0,0.1-0.6,0.1-0.6,0c0-1,0-11.6,0-12.3C63,35.3,63.5,35.3,63.5,35.4z"/>
	<path class="st0" d="M52.5,43.2c0,1,0,4.5,0,5.3c0,0.1-0.6,0.1-0.6,0c0-1,0-4.6,0-5.3C51.9,43.1,52.5,43.1,52.5,43.2z"/>
	<path class="st0" d="M47.5,35c0,1,0,12.6,0,13.4c0,0.1-0.6,0.1-0.6,0c0-1,0-12.7,0-13.4C46.9,34.9,47.5,34.9,47.5,35z"/>
	<path class="st0" d="M52.5,35.1c0,1,0,5.1,0,5.9c0,0.1-0.6,0.1-0.6,0c0-1,0-5.2,0-5.9C51.9,35,52.5,35,52.5,35.1z"/>
	<path class="st0" d="M40.6,35.3c0,1,0,4.4,0,5.1c0,0.1-0.6,0.1-0.6,0c0-1,0-4.5,0-5.1C40.1,35.1,40.6,35.1,40.6,35.3z"/>
	<path class="st0" d="M40.7,42.2c0,1,0,5.5,0,6.1c0,0.1-0.6,0-0.6-0.3c0-1,0-5.2,0-5.9C40.1,42.1,40.7,42.1,40.7,42.2z"/>
	<path class="st0" d="M58.7,5c0,1,0,15,0,15.7c0,0.1-0.6,0.1-0.6,0c0-1,0-15.1,0-15.8C58.1,4.6,58.7,4.7,58.7,5z"/>
	<path class="st0" d="M46.3,11.9c0,1-0.2,2-0.2,2.8c0,0.1-0.6,0.1-0.6,0c0-1,0.2-2.3,0.2-2.9C45.9,11.6,46.3,11.8,46.3,11.9z"/>
	<path class="st0" d="M45.8,18.3c0,1-0.6,6.1-0.6,7c0,0.1-0.6-0.1-0.6-0.2c0-1,0.6-6.3,0.6-7C45.2,17.9,45.8,18.2,45.8,18.3z"/>
	<path class="st0" d="M29.2,15c0,1,0,17.8,0,18.5c0,0.1-0.6,0.1-0.6,0c0-1,0-17.2,0-17.8C28.8,15.5,29.2,14.8,29.2,15z"/>
	<path class="st0" d="M36.1,20.7c0,1,0,5.8,0,6.4c0,0.1-0.6,0.1-0.6,0c0-1,0-5.8,0-6.4C35.6,20.6,36.1,20.6,36.1,20.7z"/>
	<path class="st0" d="M35.8,12.7c0,1,0,5.3,0,6c0,0.1-0.6,0.1-0.6,0c0-1,0-4.9,0-5.7C35.4,13,35.8,12.6,35.8,12.7z"/>
	<path class="st0" d="M9.6,23.8c0,1,0,26.2,0,27c0,0.1-0.6,0.4-0.6,0.3c0-1,0-26.8,0-27.5C9,23.5,9.6,23.7,9.6,23.8z"/>
	<path class="st0" d="M8.9,9.7c-0.1-0.6,0-0.9-0.1-1.2C8.6,8.4,8.5,8.4,8.3,8.4c-0.2,0-0.5,0-0.8,0c-0.2,0-0.6,0-1,0
		c-0.6,0-1.2,0-1.6,0s-0.6,0-0.6,0L3.5,8.5c0,0-0.2,0.8-0.2,1.4C3.3,10,3.5,10,3.5,10c0.3-1.3,0.9-1.2,1.9-1c0.4,0.1,0.3,3,0.2,4.3
		c-0.1,0.3-0.1,0.5-0.6,0.6C4.6,14,4.8,14.1,5,14.1L6.2,14h1c0.4,0,0.3-0.2,0-0.3c-0.2-0.1-0.6-0.2-0.6-0.6c-0.1,0-0.2-3.8,0.1-4.1
		c0.2-0.2,1.2-0.2,1.5,0C8.6,9.1,8.9,9.8,8.9,9.7C8.9,9.8,8.9,9.8,8.9,9.7C9,9.9,9,9.8,8.9,9.7z"/>
	<path class="st0" d="M15.2,13.7c-0.2-0.1-0.5-0.3-0.5-0.6V9c0-0.2,0.2-0.5,0.3-0.5c0.6-0.3,0-0.2,0-0.2h-0.6c-0.3,0-0.6,0-0.8,0
		c-0.9,0,0.2,0.2,0.2,0.6v1.7c-0.2,0.1-2.5,0-2.5,0V8.9c0-0.2,0-0.2,0.2-0.4c0.2,0,0.3-0.2,0.2-0.2c-0.2,0-0.5,0-0.6,0h-1.2
		c-0.5,0,0,0.2,0.1,0.3c0.1,0,0.2,0.2,0.2,0.5c0,0.2,0,4.4,0,4.4c0,0.2-0.1,0.2-0.2,0.3c-0.1,0.1-0.4,0.3-0.1,0.3c0.3,0,0.9,0,0.9,0
		c-0.1,0,0.4,0,0.6,0c0.4-0.1-0.1-0.2-0.2-0.3c-0.2-0.1-0.2-0.3-0.2-0.3c-0.1-0.2-0.1-1.9,0-2.1c0.2-0.2,2.4-0.2,2.5,0
		c0.1,0.3,0.1,2,0.1,2c0,0.2-0.1,0.4-0.4,0.6c-0.3,0.2-0.1,0.2-0.1,0.2c0.2,0,0.8,0,0.9,0c0.4,0,0.8,0,1,0
		C15.7,14.2,15.5,13.8,15.2,13.7z"/>
	<path class="st0" d="M19.3,13.5c0,0-0.9,0-1-0.2c-0.2-0.2-0.1-1.9,0-2c0.1-0.1,1,0,1,0c0.4,0,0.6,0,0.8,0.1
		c0.1,0.1,0.1-0.1,0.2,0.3c0.1,0.4,0.3,0.2,0.3,0.1c-0.2-0.4,0.2-0.6,0-1.3c-0.1-0.2-0.2-0.3-0.2,0c-0.1,0.4-0.1,0.2-0.2,0.3
		s-1.7,0.2-1.8,0c-0.1-0.2-0.2-1,0-2c3.3-0.4,3.1,0.6,3.5,0.6c0.1,0,0.1,0,0.2-0.2c0.1-0.2-0.4-1-0.4-1c0.4,0-2.4,0-4,0.1
		c-0.3,0-0.6,0-0.6,0c-0.2,0-0.2,0-0.2,0.1c0,0.1,0.2,0,0.3,0.1c0.2,0.1,0.3,0,0.3,0.1c0.1,0,0.1,0.1,0.1,0.2c0,0,0,0.2,0,0.6
		c0,0,0,2.5,0,4.1c-0.1,0.3-0.2,0.5-0.5,0.6c-0.4,0,0,0.3,0,0.3h0.6c1.3,0,4.1,0,4.1-0.1c0.1-0.2,0.5-0.6,0.5-0.9
		c0-0.1-0.1-0.5-0.2-0.5C21.5,12.8,21.4,13.5,19.3,13.5z"/>
</g>
<g id="PIG">
	<path class="st0" d="M45.5,105.9c-0.2,0-0.3,1.3-0.5,1.4c-1.8,0.5-2.5,1-3.1,0.6c0-1.8,2-3.3,3.5-6.3c-0.9-1-2-2.7-2.6-2.9
		c-3.3,1.5-7.7,1.3-9,1c-0.1,1.4-1.5,2.7-1.8,2.9c-0.2,0.6-0.2,0.9-0.2,1c0.8,0.6,0.9,1.8,0.8,2.1c-0.1-0.2-0.5-0.6-0.6-0.6
		c-0.1,0.5-0.2,1.8-0.4,2.1c-0.6,0.9-2,0.9-2.5,0.8c-0.4-1.1,1-2.7,0.9-3.8c-0.3-0.8-0.6-1.2-0.9-1.9c-0.2-0.5-0.2-1.8-0.4-1.8
		c-0.4,0-0.5,1.5-1.1,2.5c-0.5,0.6-1.7,1-2.3,1.8c0.4,0.8,0.5,2.9,0.4,2.9c-0.1,0-0.5-1-0.8-1.1c-0.2,0-0.2,1.7-0.6,2.4
		c-0.5,0.4-1.9,0.1-2.8,0.6c-0.2-0.1-0.2-1.4,1.1-3c0.8-1.6,1.6-4,1.4-4.5c-0.6-1-0.8-2.4-0.9-3.5c-1.3,1-4.1,1.8-6.2,1.4
		c-3.5-1-4.7-1.8-8-0.3c-0.2-0.2,0.1-1,0.9-1.5c-1-0.2-2.5-0.1-3.2-0.9c-1.5-1.5-2.9-4-2.5-4.3c0.2-0.2,1.4,0.2,2.5-0.5
		c2.9-1.8,5.9-3.5,7.6-6c-0.9,0-1.5-0.2-2-0.6c-0.4-0.5-1.1-1.8-2.9-1.9c0-1,6.8-1.5,8.7-0.3c17.3-13.1,38-7.9,40-1.8
		c1.7,2,4.1,3.3,6.4,3.1c-1.5,2.3-5.7,0.5-6.2-0.4c0,0-0.1,0-0.2,0c0.5,3.7-1.3,6.4-2.4,8.5c-0.3,1.7,0.9,4.8,0.2,5.8
		c-0.6,1.1-1.9,3.3-2.4,4.6c-0.6,2.5,0.1,3-0.9,3.8c-0.2-0.5-0.4-0.6-0.4-0.6c-0.2,0-0.2,1.4-0.6,1.8c-0.6,0.6-1.5,0.3-3,1.1
		c-1-0.8,2.5-4.1,2.9-7.7c-0.6-1.3-1.9-2.3-2.5-2.5c-0.5,4.6-2.5,4.9-2.5,5.4c0,1.4-0.3,2.5-0.6,2.5
		C45.9,106.2,45.7,105.9,45.5,105.9z"/>
</g>
<g id="MEAT" class="st1">
	<path class="st2" d="M356.8-25.6l58.3,1.1v8L367.8-6.2l47.3,10.4v8l-58.3,1.1V6.7l42.4-0.6l-42.4-9.9v-4.6l42.4-9.8l-42.4-0.6
		V-25.6z"/>
	<path class="st2" d="M356.8,32.1h58.3v22.6h-6V40.2h-19.3V52H384V40.2h-21.4v14.6h-5.8L356.8,32.1L356.8,32.1z"/>
	<path class="st2" d="M356.8,68.2l58.3,12.5v7.8L356.8,101v-7.7l14.7-2.7V78.7l-14.7-2.8V68.2z M377.3,79.7v9.7l26.4-4.9L377.3,79.7
		z"/>
	<path class="st2" d="M356.8,120.5h52.3v-10.7h6v29.1h-6v-10.3h-52.3V120.5z"/>
</g>
<g id="FINE" class="st1">
	<path class="st2" d="M104.3,132.5V24h41.9v10.9h-26.8v36h20.7v10.8h-20.7v50.8L104.3,132.5L104.3,132.5z"/>
	<path class="st2" d="M170.4,132.5V24h14.9v108.5H170.4z"/>
	<path class="st2" d="M215.8,132.5V24h10.3l30.8,72V24h12.6v108.5h-9.7l-31.2-74.1v74.1H215.8z"/>
	<path class="st2" d="M299.6,132.5V24h42v11.2h-26.9v35.9h21.9v10.8h-21.9v39.8h27.2v10.9L299.6,132.5L299.6,132.5z"/>
</g>
<g id="CRAFTING" class="st1">
	<path class="st2" d="M114.8,12.9c-1.6,0-2.9-0.2-4.1-0.6c-1.2-0.4-2.1-1-2.9-1.7c-0.7-0.7-1.3-1.6-1.8-2.7s-0.8-2.2-1-3.4
		c-0.2-1.2-0.3-2.5-0.3-3.9v-15.7c0-1.5,0.1-2.9,0.3-4.1c0.2-1.2,0.5-2.3,1-3.4s1.1-1.9,1.8-2.6c0.7-0.7,1.7-1.2,2.9-1.6
		s2.5-0.6,4.1-0.6c1.7,0,3.2,0.3,4.4,0.8s2.2,1.3,2.9,2.3s1.2,2.2,1.5,3.5c0.3,1.3,0.5,2.9,0.5,4.7v2.4h-3.5V-16
		c0-1.4-0.1-2.6-0.2-3.5c-0.1-0.9-0.4-1.8-0.8-2.6c-0.4-0.8-1-1.4-1.8-1.7s-1.8-0.6-3-0.6c-1.3,0-2.4,0.2-3.2,0.6s-1.5,1-1.9,1.9
		s-0.7,1.8-0.9,2.7c-0.2,1-0.2,2.2-0.2,3.6V1.1c0,3.1,0.5,5.3,1.4,6.7c0.9,1.4,2.5,2.1,4.9,2.1c1,0,1.8-0.1,2.5-0.4s1.3-0.6,1.7-1.1
		s0.8-1.1,1-1.8c0.2-0.8,0.4-1.5,0.5-2.3s0.1-1.8,0.1-2.9v-2.6h3.5v2.3c0,1.4-0.1,2.7-0.3,3.9c-0.2,1.1-0.5,2.2-0.9,3.2
		s-1,1.9-1.7,2.5c-0.7,0.7-1.6,1.2-2.7,1.6S116.2,12.9,114.8,12.9z"/>
	<path class="st2" d="M138.8,12.4V-27h9c3.5,0,6,0.8,7.5,2.5c1.5,1.7,2.3,4.2,2.3,7.4c0,5.4-1.8,8.5-5.5,9.3l6,20.2h-3.7L148.6-7
		h-6.2v19.4C142.4,12.4,138.8,12.4,138.8,12.4z M142.5-9.7h5c2.4,0,4-0.6,5-1.7s1.4-3,1.4-5.6c0-2.5-0.4-4.4-1.3-5.5
		c-0.9-1.1-2.5-1.7-4.9-1.7h-5.1L142.5-9.7L142.5-9.7z"/>
	<path class="st2" d="M170.6,12.4l8.3-39.4h3.9l8.4,39.4h-3.6l-1.9-10.5h-9.4l-2,10.5H170.6z M176.7-0.8h8.4L180.9-22L176.7-0.8z"/>
	<path class="st2" d="M204.8,12.4V-27h14.3v2.8h-10.5v14.8h8.7v2.8h-8.7v19H204.8z"/>
	<path class="st2" d="M236.8,12.4v-36.5h-7.9V-27h19.4v2.9h-7.7v36.5H236.8z"/>
	<path class="st2" d="M260.6,12.4V-27h3.7v39.4C264.3,12.4,260.6,12.4,260.6,12.4z"/>
	<path class="st2" d="M280.2,12.4V-27h2.7l12.5,30.6V-27h3.2v39.4H296l-12.6-30.9v30.9H280.2z"/>
	<path class="st2" d="M323.3,12.9c-1.8,0-3.4-0.3-4.7-0.9s-2.3-1.4-3-2.6S314.3,7,314,5.5c-0.3-1.5-0.5-3.2-0.5-5.2V-15
		c0-2,0.2-3.7,0.5-5.2c0.3-1.4,0.8-2.7,1.6-3.9c0.7-1.1,1.8-2,3.1-2.5c1.3-0.6,2.9-0.9,4.9-0.9c3.4,0,5.8,0.9,7.3,2.8
		s2.2,4.7,2.2,8.5v1.4h-3.5v-1.4c0-2.9-0.4-5.1-1.3-6.4c-0.9-1.3-2.4-2-4.7-2c-1.1,0-2,0.2-2.7,0.5c-0.8,0.3-1.4,0.7-1.8,1.2
		c-0.5,0.5-0.8,1.2-1.1,2c-0.3,0.8-0.4,1.6-0.5,2.5s-0.1,1.8-0.1,3V0.8c0,1.5,0.1,2.8,0.3,3.9c0.2,1.1,0.5,2,1,2.8s1.1,1.4,2,1.8
		c0.8,0.4,1.9,0.6,3.1,0.6c2.3,0,3.9-0.8,4.8-2.3s1.3-3.8,1.3-6.9V-4h-5.8v-2.6h9.2v19h-2.4l-0.5-4.5
		C329.4,11.3,327,12.9,323.3,12.9z"/>
</g>
<g class="st1">
	<path class="st2" d="M68.6-22.3c0-0.5,0.1-0.9,0.2-1.3c0.1-0.4,0.3-0.7,0.5-0.9c0.2-0.2,0.4-0.4,0.7-0.5c0.3-0.1,0.6-0.2,0.9-0.3
		s0.7-0.1,1.1-0.1h8.7v1.1H72c-0.3,0-0.6,0-0.8,0.1c-0.2,0-0.5,0.1-0.7,0.2c-0.2,0.1-0.4,0.2-0.5,0.3s-0.3,0.3-0.3,0.6
		c-0.1,0.2-0.1,0.5-0.1,0.8c0,0.4,0.1,0.7,0.2,1c0.1,0.3,0.3,0.5,0.5,0.6s0.5,0.2,0.8,0.3c0.3,0.1,0.6,0.1,1,0.1h8.7v1.1h-8.7
		c-0.4,0-0.8,0-1.1-0.1s-0.6-0.2-0.9-0.3s-0.5-0.3-0.7-0.6c-0.2-0.2-0.3-0.5-0.5-0.9S68.6-21.8,68.6-22.3z"/>
	<path class="st2" d="M68.8-14.3h11.9v0.8l-9.3,3.8h9.3v1H68.8v-0.8l9.4-3.8h-9.4V-14.3z"/>
	<path class="st2" d="M68.8-3.7h11.9v1.1H68.8V-3.7z"/>
	<path class="st2" d="M66.4,7.8c0.3-0.5,1-1.2,2.2-2.1c0-0.1,0-0.2,0-0.4c0-0.6,0.1-1.1,0.3-1.5s0.4-0.7,0.8-1
		c0.3-0.2,0.7-0.4,1.2-0.5c0.4-0.1,0.9-0.2,1.5-0.2h5c0.6,0,1,0.1,1.5,0.2c0.4,0.1,0.8,0.3,1.1,0.5s0.6,0.6,0.7,1
		C80.9,4.2,81,4.7,81,5.3s-0.1,1.1-0.3,1.5s-0.4,0.7-0.7,1c-0.3,0.2-0.7,0.4-1.1,0.5S78,8.5,77.4,8.5h-5c-0.4,0-0.8,0-1.2-0.1
		s-0.7-0.2-1-0.3s-0.6-0.3-0.8-0.6C69.2,7.3,69,7,68.9,6.6c-0.3,0.2-0.6,0.4-0.8,0.7S67.6,7.8,67.5,8L66.4,7.8z M69.7,4.4
		c-0.1,0.3-0.2,0.6-0.2,1s0.1,0.7,0.2,1S70,6.9,70.2,7s0.5,0.2,0.8,0.3c0.3,0.1,0.6,0.1,1,0.1h5.4c0.4,0,0.7,0,1-0.1
		s0.5-0.2,0.8-0.3c0.2-0.1,0.4-0.3,0.5-0.6c0.1-0.3,0.2-0.6,0.2-1s-0.1-0.7-0.2-1s-0.3-0.5-0.5-0.6s-0.5-0.2-0.8-0.3
		c-0.3-0.1-0.6-0.1-1-0.1H72c-0.4,0-0.8,0-1,0.1s-0.6,0.2-0.8,0.3C70,3.9,69.8,4.1,69.7,4.4z"/>
	<path class="st2" d="M68.6,16.2c0-0.5,0.1-0.9,0.2-1.3c0.1-0.4,0.3-0.7,0.5-0.9s0.4-0.4,0.7-0.5s0.6-0.2,0.9-0.3s0.7-0.1,1.1-0.1
		h8.7v1.1H72c-0.3,0-0.6,0-0.8,0.1c-0.2,0-0.5,0.1-0.7,0.2s-0.4,0.2-0.5,0.3s-0.3,0.3-0.3,0.6c-0.1,0.2-0.1,0.5-0.1,0.8
		c0,0.4,0.1,0.7,0.2,1s0.3,0.5,0.5,0.6s0.5,0.2,0.8,0.3s0.6,0.1,1,0.1h8.7v1.1h-8.7c-0.4,0-0.8,0-1.1-0.1s-0.6-0.2-0.9-0.3
		s-0.5-0.3-0.7-0.6c-0.2-0.2-0.3-0.5-0.5-0.9S68.6,16.6,68.6,16.2z"/>
	<path class="st2" d="M68.8,24.1h11.9v4.3h-0.9v-3.2h-4.5v2.6h-0.8v-2.6h-4.9v3.2h-0.8C68.8,28.4,68.8,24.1,68.8,24.1z"/>
	<path class="st2" d="M68.8,32.9h11.9V34H69.6v3.4h-0.8V32.9L68.8,32.9z"/>
	<path class="st2" d="M68.8,43.4h4l8-2.7v1.1l-6.6,2.1l6.6,2.1v1.1l-8-2.6h-4V43.4z"/>
	<path class="st2" d="M68.8,57.3h11.9v2.6c0,0.5-0.1,0.9-0.2,1.3s-0.3,0.7-0.5,0.9s-0.4,0.4-0.7,0.6c-0.3,0.2-0.6,0.3-1,0.3
		c-0.3,0.1-0.7,0.1-1.2,0.1h-4.7c-0.6,0-1.1-0.1-1.5-0.2s-0.8-0.3-1.2-0.5c-0.3-0.2-0.6-0.6-0.8-1s-0.3-0.9-0.3-1.5v-2.6
		C68.6,57.3,68.8,57.3,68.8,57.3z M69.6,58.5V60c0,0.4,0.1,0.7,0.2,0.9c0.1,0.3,0.2,0.5,0.4,0.6s0.4,0.3,0.7,0.3s0.5,0.1,0.8,0.2
		c0.3,0,0.6,0,1,0h4.5c0.4,0,0.7,0,1,0s0.5-0.1,0.8-0.2c0.2-0.1,0.4-0.2,0.6-0.4s0.3-0.4,0.3-0.6c0.1-0.3,0.1-0.6,0.1-0.9v-1.5
		L69.6,58.5L69.6,58.5z"/>
	<path class="st2" d="M68.8,68h11.9v4.3h-0.9v-3.2h-4.5v2.6h-0.8v-2.6h-4.9v3.2h-0.8C68.8,72.3,68.8,68,68.8,68z"/>
	<path class="st2" d="M68.8,76.8h11.9v1.1H69.6v3.4h-0.8V76.8L68.8,76.8z"/>
	<path class="st2" d="M68.8,85.4h11.9v1.1H68.8V85.4z"/>
	<path class="st2" d="M68.6,94.4c0-0.5,0.1-0.9,0.2-1.2c0.1-0.4,0.3-0.6,0.5-0.9s0.5-0.4,0.8-0.5s0.7-0.2,1-0.3
		c0.4-0.1,0.8-0.1,1.2-0.1H77c0.5,0,0.9,0,1.2,0.1c0.4,0.1,0.7,0.2,1,0.3s0.6,0.3,0.8,0.6c0.2,0.2,0.4,0.5,0.5,0.9s0.2,0.8,0.2,1.2
		c0,0.5-0.1,1-0.2,1.3c-0.2,0.4-0.4,0.7-0.7,0.9s-0.7,0.4-1.1,0.5s-0.9,0.1-1.4,0.1h-0.7v-1.1h0.7c0.4,0,0.8,0,1.1-0.1
		c0.3,0,0.5-0.1,0.8-0.2s0.4-0.3,0.5-0.5s0.2-0.5,0.2-0.9s-0.1-0.7-0.2-1s-0.3-0.5-0.6-0.6s-0.5-0.2-0.8-0.3s-0.7-0.1-1.1-0.1h-5.1
		c-0.9,0-1.6,0.1-2,0.4s-0.6,0.8-0.6,1.5c0,0.3,0,0.5,0.1,0.8c0.1,0.2,0.2,0.4,0.3,0.5s0.3,0.2,0.6,0.3c0.2,0.1,0.5,0.1,0.7,0.2
		s0.5,0,0.9,0h0.8v1.1h-0.7c-0.4,0-0.8,0-1.2-0.1s-0.7-0.1-1-0.3c-0.3-0.1-0.6-0.3-0.8-0.5s-0.4-0.5-0.5-0.8
		C68.7,95.2,68.6,94.8,68.6,94.4z"/>
	<path class="st2" d="M68.8,101.9h11.9v1.1H68.8V101.9z"/>
	<path class="st2" d="M68.6,110.9c0-0.6,0.1-1.1,0.3-1.5s0.4-0.7,0.8-1c0.3-0.2,0.7-0.4,1.2-0.5c0.4-0.1,0.9-0.2,1.5-0.2h5
		c0.6,0,1.1,0.1,1.5,0.2c0.4,0.1,0.8,0.3,1.1,0.5s0.6,0.6,0.7,1c0.2,0.4,0.3,0.9,0.3,1.5s-0.1,1-0.3,1.5s-0.4,0.7-0.7,1
		s-0.7,0.4-1.1,0.5s-0.9,0.2-1.5,0.2h-5c-0.4,0-0.8,0-1.2-0.1s-0.7-0.2-1-0.3s-0.6-0.3-0.8-0.6c-0.2-0.2-0.4-0.5-0.5-0.9
		C68.7,111.8,68.6,111.4,68.6,110.9z M69.7,109.9c-0.1,0.3-0.2,0.6-0.2,1s0.1,0.7,0.2,1s0.3,0.5,0.5,0.6s0.5,0.2,0.8,0.3
		s0.6,0.1,1,0.1h5.4c0.4,0,0.7,0,1-0.1s0.5-0.2,0.8-0.3s0.4-0.3,0.5-0.6s0.2-0.6,0.2-1s-0.1-0.7-0.2-1s-0.3-0.5-0.5-0.6
		s-0.5-0.2-0.8-0.3s-0.6-0.1-1-0.1H72c-0.4,0-0.7,0-1,0.1s-0.5,0.2-0.8,0.3C70,109.5,69.8,109.7,69.7,109.9z"/>
	<path class="st2" d="M68.6,121.7c0-0.5,0.1-0.9,0.2-1.3s0.3-0.7,0.5-0.9s0.4-0.4,0.7-0.5s0.6-0.2,0.9-0.3s0.7-0.1,1.1-0.1h8.7v1.1
		H72c-0.3,0-0.6,0-0.8,0.1s-0.5,0.1-0.7,0.2c-0.2,0.1-0.4,0.2-0.5,0.3s-0.3,0.3-0.3,0.6c-0.1,0.2-0.1,0.5-0.1,0.8
		c0,0.4,0.1,0.7,0.2,1s0.3,0.5,0.5,0.6s0.5,0.2,0.8,0.3s0.6,0.1,1,0.1h8.7v1.1h-8.7c-0.4,0-0.8,0-1.1-0.1s-0.6-0.2-0.9-0.3
		s-0.5-0.3-0.7-0.6s-0.3-0.5-0.5-0.9S68.6,122.1,68.6,121.7z"/>
	<path class="st2" d="M68.6,132.2c0-0.9,0.3-1.7,0.9-2.1c0.6-0.5,1.4-0.8,2.4-0.8l0.3,1c-0.3,0-0.6,0.1-0.8,0.1s-0.5,0.1-0.7,0.2
		s-0.4,0.2-0.6,0.4c-0.1,0.1-0.3,0.3-0.4,0.5s-0.1,0.5-0.1,0.8c0,1.1,0.6,1.7,1.7,1.7c0.3,0,0.5,0,0.7-0.1s0.4-0.2,0.7-0.3
		c0.2-0.1,0.4-0.3,0.6-0.4s0.4-0.4,0.6-0.6l2-2.1c0.7-0.7,1.5-1.1,2.4-1.1c0.8,0,1.4,0.2,1.9,0.7c0.4,0.5,0.7,1.1,0.7,2
		c0,0,0,0,0,0.1c0,0.9-0.2,1.5-0.7,2s-1.3,0.7-2.3,0.8l-0.2-1c0.8-0.1,1.4-0.2,1.8-0.5s0.6-0.7,0.6-1.3v-0.1c0-0.5-0.2-0.9-0.4-1.2
		c-0.3-0.3-0.6-0.5-1.2-0.5c-0.3,0-0.6,0.1-0.9,0.2c-0.3,0.1-0.5,0.3-0.8,0.7l-2,2.1c-0.5,0.5-1,1-1.6,1.3s-1.1,0.5-1.7,0.5
		c-0.9,0-1.5-0.3-2-0.8C68.9,133.7,68.6,133,68.6,132.2z"/>
</g>
<g class="st1">
	<path class="st2" d="M68.6-22.3c0-0.5,0.1-0.9,0.2-1.3c0.1-0.4,0.3-0.7,0.5-0.9c0.2-0.2,0.4-0.4,0.7-0.5c0.3-0.1,0.6-0.2,0.9-0.3
		s0.7-0.1,1.1-0.1h8.7v1.1H72c-0.3,0-0.6,0-0.8,0.1c-0.2,0-0.5,0.1-0.7,0.2c-0.2,0.1-0.4,0.2-0.5,0.3s-0.3,0.3-0.3,0.6
		c-0.1,0.2-0.1,0.5-0.1,0.8c0,0.4,0.1,0.7,0.2,1c0.1,0.3,0.3,0.5,0.5,0.6s0.5,0.2,0.8,0.3c0.3,0.1,0.6,0.1,1,0.1h8.7v1.1h-8.7
		c-0.4,0-0.8,0-1.1-0.1s-0.6-0.2-0.9-0.3s-0.5-0.3-0.7-0.6c-0.2-0.2-0.3-0.5-0.5-0.9S68.6-21.8,68.6-22.3z"/>
	<path class="st2" d="M68.8-14.3h11.9v0.8l-9.3,3.8h9.3v1H68.8v-0.8l9.4-3.8h-9.4V-14.3z"/>
	<path class="st2" d="M68.8-3.7h11.9v1.1H68.8V-3.7z"/>
	<path class="st2" d="M66.4,7.8c0.3-0.5,1-1.2,2.2-2.1c0-0.1,0-0.2,0-0.4c0-0.6,0.1-1.1,0.3-1.5s0.4-0.7,0.8-1
		c0.3-0.2,0.7-0.4,1.2-0.5c0.4-0.1,0.9-0.2,1.5-0.2h5c0.6,0,1,0.1,1.5,0.2c0.4,0.1,0.8,0.3,1.1,0.5s0.6,0.6,0.7,1
		C80.9,4.2,81,4.7,81,5.3s-0.1,1.1-0.3,1.5s-0.4,0.7-0.7,1c-0.3,0.2-0.7,0.4-1.1,0.5S78,8.5,77.4,8.5h-5c-0.4,0-0.8,0-1.2-0.1
		s-0.7-0.2-1-0.3s-0.6-0.3-0.8-0.6C69.2,7.3,69,7,68.9,6.6c-0.3,0.2-0.6,0.4-0.8,0.7S67.6,7.8,67.5,8L66.4,7.8z M69.7,4.4
		c-0.1,0.3-0.2,0.6-0.2,1s0.1,0.7,0.2,1S70,6.9,70.2,7s0.5,0.2,0.8,0.3c0.3,0.1,0.6,0.1,1,0.1h5.4c0.4,0,0.7,0,1-0.1
		s0.5-0.2,0.8-0.3c0.2-0.1,0.4-0.3,0.5-0.6c0.1-0.3,0.2-0.6,0.2-1s-0.1-0.7-0.2-1s-0.3-0.5-0.5-0.6s-0.5-0.2-0.8-0.3
		c-0.3-0.1-0.6-0.1-1-0.1H72c-0.4,0-0.8,0-1,0.1s-0.6,0.2-0.8,0.3C70,3.9,69.8,4.1,69.7,4.4z"/>
	<path class="st2" d="M68.6,16.2c0-0.5,0.1-0.9,0.2-1.3c0.1-0.4,0.3-0.7,0.5-0.9s0.4-0.4,0.7-0.5s0.6-0.2,0.9-0.3s0.7-0.1,1.1-0.1
		h8.7v1.1H72c-0.3,0-0.6,0-0.8,0.1c-0.2,0-0.5,0.1-0.7,0.2s-0.4,0.2-0.5,0.3s-0.3,0.3-0.3,0.6c-0.1,0.2-0.1,0.5-0.1,0.8
		c0,0.4,0.1,0.7,0.2,1s0.3,0.5,0.5,0.6s0.5,0.2,0.8,0.3s0.6,0.1,1,0.1h8.7v1.1h-8.7c-0.4,0-0.8,0-1.1-0.1s-0.6-0.2-0.9-0.3
		s-0.5-0.3-0.7-0.6c-0.2-0.2-0.3-0.5-0.5-0.9S68.6,16.6,68.6,16.2z"/>
	<path class="st2" d="M68.8,24.1h11.9v4.3h-0.9v-3.2h-4.5v2.6h-0.8v-2.6h-4.9v3.2h-0.8C68.8,28.4,68.8,24.1,68.8,24.1z"/>
	<path class="st2" d="M68.8,32.9h11.9V34H69.6v3.4h-0.8V32.9L68.8,32.9z"/>
	<path class="st2" d="M68.8,43.4h4l8-2.7v1.1l-6.6,2.1l6.6,2.1v1.1l-8-2.6h-4V43.4z"/>
	<path class="st2" d="M68.8,57.3h11.9v2.6c0,0.5-0.1,0.9-0.2,1.3s-0.3,0.7-0.5,0.9s-0.4,0.4-0.7,0.6c-0.3,0.2-0.6,0.3-1,0.3
		c-0.3,0.1-0.7,0.1-1.2,0.1h-4.7c-0.6,0-1.1-0.1-1.5-0.2s-0.8-0.3-1.2-0.5c-0.3-0.2-0.6-0.6-0.8-1s-0.3-0.9-0.3-1.5v-2.6
		C68.6,57.3,68.8,57.3,68.8,57.3z M69.6,58.5V60c0,0.4,0.1,0.7,0.2,0.9c0.1,0.3,0.2,0.5,0.4,0.6s0.4,0.3,0.7,0.3s0.5,0.1,0.8,0.2
		c0.3,0,0.6,0,1,0h4.5c0.4,0,0.7,0,1,0s0.5-0.1,0.8-0.2c0.2-0.1,0.4-0.2,0.6-0.4s0.3-0.4,0.3-0.6c0.1-0.3,0.1-0.6,0.1-0.9v-1.5
		L69.6,58.5L69.6,58.5z"/>
	<path class="st2" d="M68.8,68h11.9v4.3h-0.9v-3.2h-4.5v2.6h-0.8v-2.6h-4.9v3.2h-0.8C68.8,72.3,68.8,68,68.8,68z"/>
	<path class="st2" d="M68.8,76.8h11.9v1.1H69.6v3.4h-0.8V76.8L68.8,76.8z"/>
	<path class="st2" d="M68.8,85.4h11.9v1.1H68.8V85.4z"/>
	<path class="st2" d="M68.6,94.4c0-0.5,0.1-0.9,0.2-1.2c0.1-0.4,0.3-0.6,0.5-0.9s0.5-0.4,0.8-0.5s0.7-0.2,1-0.3
		c0.4-0.1,0.8-0.1,1.2-0.1H77c0.5,0,0.9,0,1.2,0.1c0.4,0.1,0.7,0.2,1,0.3s0.6,0.3,0.8,0.6c0.2,0.2,0.4,0.5,0.5,0.9s0.2,0.8,0.2,1.2
		c0,0.5-0.1,1-0.2,1.3c-0.2,0.4-0.4,0.7-0.7,0.9s-0.7,0.4-1.1,0.5s-0.9,0.1-1.4,0.1h-0.7v-1.1h0.7c0.4,0,0.8,0,1.1-0.1
		c0.3,0,0.5-0.1,0.8-0.2s0.4-0.3,0.5-0.5s0.2-0.5,0.2-0.9s-0.1-0.7-0.2-1s-0.3-0.5-0.6-0.6s-0.5-0.2-0.8-0.3s-0.7-0.1-1.1-0.1h-5.1
		c-0.9,0-1.6,0.1-2,0.4s-0.6,0.8-0.6,1.5c0,0.3,0,0.5,0.1,0.8c0.1,0.2,0.2,0.4,0.3,0.5s0.3,0.2,0.6,0.3c0.2,0.1,0.5,0.1,0.7,0.2
		s0.5,0,0.9,0h0.8v1.1h-0.7c-0.4,0-0.8,0-1.2-0.1s-0.7-0.1-1-0.3c-0.3-0.1-0.6-0.3-0.8-0.5s-0.4-0.5-0.5-0.8
		C68.7,95.2,68.6,94.8,68.6,94.4z"/>
	<path class="st2" d="M68.8,101.9h11.9v1.1H68.8V101.9z"/>
	<path class="st2" d="M68.6,110.9c0-0.6,0.1-1.1,0.3-1.5s0.4-0.7,0.8-1c0.3-0.2,0.7-0.4,1.2-0.5c0.4-0.1,0.9-0.2,1.5-0.2h5
		c0.6,0,1.1,0.1,1.5,0.2c0.4,0.1,0.8,0.3,1.1,0.5s0.6,0.6,0.7,1c0.2,0.4,0.3,0.9,0.3,1.5s-0.1,1-0.3,1.5s-0.4,0.7-0.7,1
		s-0.7,0.4-1.1,0.5s-0.9,0.2-1.5,0.2h-5c-0.4,0-0.8,0-1.2-0.1s-0.7-0.2-1-0.3s-0.6-0.3-0.8-0.6c-0.2-0.2-0.4-0.5-0.5-0.9
		C68.7,111.8,68.6,111.4,68.6,110.9z M69.7,109.9c-0.1,0.3-0.2,0.6-0.2,1s0.1,0.7,0.2,1s0.3,0.5,0.5,0.6s0.5,0.2,0.8,0.3
		s0.6,0.1,1,0.1h5.4c0.4,0,0.7,0,1-0.1s0.5-0.2,0.8-0.3s0.4-0.3,0.5-0.6s0.2-0.6,0.2-1s-0.1-0.7-0.2-1s-0.3-0.5-0.5-0.6
		s-0.5-0.2-0.8-0.3s-0.6-0.1-1-0.1H72c-0.4,0-0.7,0-1,0.1s-0.5,0.2-0.8,0.3C70,109.5,69.8,109.7,69.7,109.9z"/>
	<path class="st2" d="M68.6,121.7c0-0.5,0.1-0.9,0.2-1.3s0.3-0.7,0.5-0.9s0.4-0.4,0.7-0.5s0.6-0.2,0.9-0.3s0.7-0.1,1.1-0.1h8.7v1.1
		H72c-0.3,0-0.6,0-0.8,0.1s-0.5,0.1-0.7,0.2c-0.2,0.1-0.4,0.2-0.5,0.3s-0.3,0.3-0.3,0.6c-0.1,0.2-0.1,0.5-0.1,0.8
		c0,0.4,0.1,0.7,0.2,1s0.3,0.5,0.5,0.6s0.5,0.2,0.8,0.3s0.6,0.1,1,0.1h8.7v1.1h-8.7c-0.4,0-0.8,0-1.1-0.1s-0.6-0.2-0.9-0.3
		s-0.5-0.3-0.7-0.6s-0.3-0.5-0.5-0.9S68.6,122.1,68.6,121.7z"/>
	<path class="st2" d="M68.6,132.2c0-0.9,0.3-1.7,0.9-2.1c0.6-0.5,1.4-0.8,2.4-0.8l0.3,1c-0.3,0-0.6,0.1-0.8,0.1s-0.5,0.1-0.7,0.2
		s-0.4,0.2-0.6,0.4c-0.1,0.1-0.3,0.3-0.4,0.5s-0.1,0.5-0.1,0.8c0,1.1,0.6,1.7,1.7,1.7c0.3,0,0.5,0,0.7-0.1s0.4-0.2,0.7-0.3
		c0.2-0.1,0.4-0.3,0.6-0.4s0.4-0.4,0.6-0.6l2-2.1c0.7-0.7,1.5-1.1,2.4-1.1c0.8,0,1.4,0.2,1.9,0.7c0.4,0.5,0.7,1.1,0.7,2
		c0,0,0,0,0,0.1c0,0.9-0.2,1.5-0.7,2s-1.3,0.7-2.3,0.8l-0.2-1c0.8-0.1,1.4-0.2,1.8-0.5s0.6-0.7,0.6-1.3v-0.1c0-0.5-0.2-0.9-0.4-1.2
		c-0.3-0.3-0.6-0.5-1.2-0.5c-0.3,0-0.6,0.1-0.9,0.2c-0.3,0.1-0.5,0.3-0.8,0.7l-2,2.1c-0.5,0.5-1,1-1.6,1.3s-1.1,0.5-1.7,0.5
		c-0.9,0-1.5-0.3-2-0.8C68.9,133.7,68.6,133,68.6,132.2z"/>
</g>
<g id="Layer_2_1_">
</g>
<g class="st3">
	<path class="st0" d="M81.9,1.6l13.5,0.3v1.3L83.7,5.9l11.8,2.7v1.3l-13.5,0.3v-1l10.8-0.2L81.9,6.3V5.5L92.7,3L81.9,2.7
		C81.9,2.7,81.9,1.6,81.9,1.6z"/>
	<path class="st0" d="M81.9,13.4l13.5,2.9v1.4l-13.5,2.9v-1.3l3.6-0.6v-3.3l-3.6-0.7C81.9,14.6,81.9,13.4,81.9,13.4z M86.5,15.5v2.9
		l7.3-1.4L86.5,15.5z"/>
	<path class="st0" d="M81.9,23.7h13.5v2.9c0,0.6-0.1,1-0.2,1.4c-0.2,0.4-0.3,0.8-0.6,1c-0.2,0.2-0.5,0.5-0.9,0.7
		c-0.4,0.2-0.7,0.3-1.1,0.4c-0.4,0.1-0.8,0.1-1.4,0.1H86c-0.6,0-1.3-0.1-1.8-0.2c-0.5-0.1-1-0.3-1.3-0.6c-0.3-0.2-0.6-0.6-0.9-1.1
		c-0.2-0.5-0.3-1-0.3-1.7v-3.1H81.9z M82.9,24.9v1.7c0,0.4,0.1,0.8,0.2,1c0.1,0.3,0.2,0.6,0.5,0.7c0.2,0.2,0.4,0.3,0.7,0.4
		c0.3,0.1,0.6,0.2,1,0.2s0.6,0,1.1,0h5c0.4,0,0.8,0,1.1-0.1c0.3,0,0.6-0.1,0.9-0.2c0.2-0.1,0.5-0.2,0.6-0.4c0.2-0.2,0.3-0.4,0.4-0.7
		c0.1-0.3,0.2-0.6,0.2-1v-1.7H82.9V24.9z"/>
	<path class="st0" d="M81.9,33.9h13.5v4.9h-1v-3.6h-5.1v2.9h-1v-2.9h-5.6v3.7h-1V33.9z"/>
	<path class="st0" d="M81.9,47.2h13.5v2.9c0,1.2-0.3,2-0.9,2.5c-0.6,0.5-1.4,0.8-2.5,0.8c-0.5,0-0.9-0.1-1.3-0.2
		c-0.4-0.1-0.7-0.3-1-0.6s-0.5-0.6-0.6-1c-0.1,0.4-0.2,0.7-0.5,1s-0.5,0.5-0.8,0.6c-0.3,0.2-0.6,0.2-1,0.3c-0.3,0.1-0.7,0.1-1.1,0.1
		c-0.5,0-0.9,0-1.3-0.1c-0.4-0.1-0.7-0.2-1-0.3c-0.3-0.2-0.6-0.3-0.9-0.6c-0.2-0.2-0.4-0.6-0.6-1c-0.2-0.4-0.2-0.8-0.2-1.3V47.2z
		 M82.9,48.5v1.8c0,0.9,0.2,1.4,0.7,1.8c0.5,0.3,1.2,0.5,2.3,0.5c1.9,0,2.8-0.7,2.8-2.1v-1.8L82.9,48.5L82.9,48.5z M89.6,48.5v1.8
		c0,0.7,0.2,1.2,0.6,1.5c0.4,0.3,1,0.4,1.8,0.4c0.9,0,1.4-0.2,1.8-0.6c0.4-0.4,0.6-1,0.6-2v-1.2C94.5,48.5,89.6,48.5,89.6,48.5z"/>
	<path class="st0" d="M81.9,59.3h4.5l9.1-3v1.3L88,60l7.5,2.3v1.3l-9.1-3h-4.5V59.3z"/>
	<path class="st0" d="M81.9,71.6h13.5v1.3h-6v4.3h6v1.3H81.9v-1.3h6.6v-4.3h-6.6C81.9,72.8,81.9,71.6,81.9,71.6z"/>
	<path class="st0" d="M81.9,81.6l13.5,2.9v1.4l-13.5,2.9v-1.3l3.6-0.6v-3.3l-3.6-0.7C81.9,82.8,81.9,81.6,81.9,81.6z M86.5,83.7v2.9
		l7.3-1.4L86.5,83.7z"/>
	<path class="st0" d="M81.9,91.9h13.5v1l-10.5,4.3h10.5v1.1H81.9v-0.9l10.7-4.4H81.9C81.9,93.1,81.9,91.9,81.9,91.9z"/>
	<path class="st0" d="M81.9,102.2h13.5v2.9c0,0.6-0.1,1-0.2,1.4c-0.2,0.4-0.3,0.8-0.6,1c-0.2,0.2-0.5,0.5-0.9,0.7
		c-0.4,0.2-0.7,0.3-1.1,0.4c-0.4,0.1-0.8,0.1-1.4,0.1H86c-0.6,0-1.3-0.1-1.8-0.2s-1-0.3-1.3-0.6c-0.3-0.2-0.6-0.6-0.9-1.1
		c-0.2-0.5-0.3-1-0.3-1.7v-3.1H81.9z M82.9,103.5v1.7c0,0.4,0.1,0.8,0.2,1c0.1,0.3,0.2,0.6,0.5,0.7c0.2,0.2,0.4,0.3,0.7,0.4
		c0.3,0.1,0.6,0.2,1,0.2s0.6,0,1.1,0h5c0.4,0,0.8,0,1.1-0.1c0.3,0,0.6-0.1,0.9-0.2c0.2-0.1,0.5-0.2,0.6-0.4c0.2-0.2,0.3-0.4,0.4-0.7
		c0.1-0.3,0.2-0.6,0.2-1v-1.7H82.9V103.5z"/>
</g>
<g class="st3">
	<path class="st0" d="M106,58.5v-58h13.3c5.3,0,9.2,1.2,11.7,3.5c2.5,2.4,3.8,6,3.8,11c0,7.4-2.8,11.5-8.3,12.2
		c3.4,0.8,5.9,2.5,7.5,4.8c1.6,2.4,2.4,5.7,2.4,9.8c0,5.2-1.2,9.3-3.7,12.2c-2.4,2.9-6.2,4.4-11.2,4.4H106z M114.1,24.8h4.8
		c3.3,0,5.6-0.7,6.9-2.2c1.3-1.5,1.9-4,1.9-7.5c0-1.1-0.1-2.1-0.2-3c-0.2-0.9-0.4-1.6-0.6-2.2c-0.3-0.6-0.6-1.1-1.2-1.5
		c-0.5-0.4-1.1-0.7-1.6-1c-0.5-0.2-1.3-0.4-2.2-0.6c-0.9-0.1-1.8-0.2-2.7-0.2c-0.9,0-1.9-0.1-3.3-0.1h-1.9V24.8z M114.1,52.7h5.5
		c3.5,0,5.9-0.8,7.2-2.5c1.3-1.6,1.9-4.4,1.9-8.3c0-3.7-0.8-6.5-2.3-8.3c-1.5-1.8-4-2.7-7.5-2.7h-4.8V52.7z"/>
	<path class="st0" d="M162.2,59.2c-2.9,0-5.4-0.4-7.4-1.3s-3.7-2.1-4.9-3.8c-1.2-1.7-2.1-3.6-2.7-5.9c-0.6-2.2-0.8-4.8-0.8-7.8v-22
		c0-6,1.2-10.6,3.7-13.7c2.5-3.1,6.5-4.7,12.2-4.7c5.6,0,9.7,1.6,12.1,4.7c2.5,3.1,3.7,7.7,3.7,13.7v22c0,6-1.2,10.7-3.7,13.9
		C171.8,57.6,167.8,59.2,162.2,59.2z M158.3,52.1c1,0.5,2.3,0.7,3.9,0.7c1.6,0,2.9-0.2,3.9-0.7c1-0.5,1.8-1.2,2.4-2.2
		s0.9-2.1,1.1-3.3c0.2-1.2,0.3-2.7,0.3-4.5V16.7c0-1.7-0.1-3.2-0.3-4.4c-0.2-1.2-0.6-2.2-1.1-3.2s-1.3-1.7-2.4-2.2
		c-1-0.5-2.3-0.7-3.9-0.7c-1.6,0-2.9,0.2-3.9,0.7c-1,0.5-1.8,1.2-2.4,2.2c-0.5,1-0.9,2.1-1.1,3.2c-0.2,1.2-0.3,2.6-0.3,4.4v25.4
		c0,1.8,0.1,3.3,0.3,4.5c0.2,1.2,0.6,2.3,1.1,3.3C156.5,50.9,157.2,51.6,158.3,52.1z"/>
	<path class="st0" d="M186.8,58.5l12.4-58h7.8l12.4,58h-7.7L209,43.9h-11.8l-2.8,14.6H186.8z M198.3,38.2h9.7L203.1,12L198.3,38.2z"
		/>
	<path class="st0" d="M229.2,58.5v-58h11.6c5.9,0,10.2,1.2,12.9,3.6c2.7,2.4,4.1,6.3,4.1,11.8c0,7.5-2.4,12-7.2,13.5l8.3,29.1h-7.8
		l-7.6-27.2h-6.3v27.2H229.2z M237.2,25.5h3c3.5,0,6-0.7,7.5-2.1c1.5-1.4,2.3-3.9,2.3-7.5c0-3.5-0.6-6-1.9-7.4
		c-1.3-1.4-3.7-2.1-7.3-2.1h-3.6V25.5z"/>
	<path class="st0" d="M270.3,58.5v-58h12.6c6.3,0,10.7,1.4,13.3,4.3c2.6,2.8,3.9,7.3,3.9,13.4v21.3c0,6.4-1.3,11.1-3.8,14.3
		c-2.6,3.1-6.8,4.7-12.7,4.7H270.3z M278.4,52.7h4.5c1.2,0,2.3-0.1,3.3-0.4c0.9-0.2,1.7-0.5,2.4-0.9c0.6-0.3,1.2-0.9,1.6-1.6
		c0.4-0.7,0.8-1.4,1-2.1c0.2-0.6,0.4-1.6,0.5-2.8s0.2-2.3,0.2-3.2c0-0.9,0-2.1,0-3.8V19.2c0-1.4,0-2.6-0.1-3.5s-0.1-1.9-0.3-2.9
		c-0.1-1-0.3-1.7-0.6-2.3s-0.6-1.2-1.1-1.7c-0.4-0.5-1-1-1.6-1.3c-0.7-0.3-1.4-0.5-2.3-0.7c-0.9-0.2-1.9-0.2-3.1-0.2h-4.4V52.7z"/>
</g>
<g class="st3">
	<path class="st0" d="M192.9,109.1V65.2h16.9v4.4H199v14.6h8.4v4.4H199v20.5H192.9z"/>
	<path class="st0" d="M214.7,109.1l9.4-43.9h5.9l9.4,43.9h-5.8l-2-11.1h-8.9l-2.1,11.1H214.7z M223.3,93.7h7.3L227,73.9L223.3,93.7z
		"/>
	<path class="st0" d="M247.7,109.1V65.2h8.8c4.4,0,7.7,0.9,9.8,2.7c2.1,1.8,3.1,4.8,3.1,8.9c0,5.6-1.8,9.1-5.4,10.2l6.3,22h-5.9
		l-5.8-20.6h-4.7v20.6H247.7z M253.8,84.1h2.3c2.7,0,4.6-0.5,5.7-1.6c1.1-1,1.7-2.9,1.7-5.7c0-2.7-0.5-4.5-1.5-5.6
		c-1-1.1-2.8-1.6-5.5-1.6h-2.7V84.1z"/>
	<path class="st0" d="M279.8,109.1V65.2h17v4.5h-10.9v14.5h8.8v4.4h-8.8v16.1h11v4.4H279.8z"/>
</g>
<g class="st3">
	<path class="st0" d="M121.8,92.8v-2.5h6.9v2.5H121.8z"/>
	<path class="st0" d="M140.9,101.1c-1.2,0-2.3-0.2-3.2-0.6c-0.9-0.4-1.6-0.9-2.1-1.6c-0.5-0.7-0.9-1.6-1.1-2.5
		c-0.2-1-0.4-2.1-0.4-3.4v-9.5c0-2.6,0.5-4.6,1.6-5.9c1.1-1.3,2.8-2,5.2-2c2.4,0,4.2,0.7,5.2,2c1.1,1.4,1.6,3.3,1.6,5.9V93
		c0,2.6-0.5,4.6-1.6,6C145,100.4,143.3,101.1,140.9,101.1z M139.2,98.1c0.4,0.2,1,0.3,1.7,0.3c0.7,0,1.2-0.1,1.7-0.3
		c0.4-0.2,0.8-0.5,1-1c0.2-0.4,0.4-0.9,0.5-1.4c0.1-0.5,0.1-1.2,0.1-1.9V82.8c0-0.8,0-1.4-0.1-1.9c-0.1-0.5-0.2-1-0.5-1.4
		c-0.2-0.4-0.6-0.7-1-0.9c-0.4-0.2-1-0.3-1.7-0.3c-0.7,0-1.2,0.1-1.7,0.3c-0.4,0.2-0.8,0.5-1,0.9c-0.2,0.4-0.4,0.9-0.5,1.4
		c-0.1,0.5-0.1,1.1-0.1,1.9v10.9c0,0.8,0,1.4,0.1,1.9c0.1,0.5,0.2,1,0.5,1.4C138.4,97.5,138.7,97.9,139.2,98.1z"/>
	<path class="st0" d="M153.5,100.8v-25h9.6v2.5H157v8.3h4.8v2.5H157v11.7H153.5z"/>
	<path class="st0" d="M167.5,92.8v-2.5h6.9v2.5H167.5z"/>
</g>
</svg>
