<?xml version="1.0" encoding="utf-8"?>
<!-- Generator: Adobe Illustrator 21.1.0, SVG Export Plug-In . SVG Version: 6.00 Build 0)  -->
<svg version="1.1" id="Kansas" xmlns="http://www.w3.org/2000/svg" xmlns:xlink="http://www.w3.org/1999/xlink" x="0px" y="0px"
	 viewBox="0 0 521.4 269.7" style="enable-background:new 0 0 521.4 269.7;" xml:space="preserve">
<style type="text/css">
	.st0{fill:none;stroke:#FFFFFF;stroke-width:3;}
	.st1{fill:#FFFFFF;}
	.st2{enable-background:new    ;}
</style>
<path id="Kansas_1_" class="st0" d="M518.4,79.9l0.4,41.5c0,12.7,0,25.4,0,38.1c0,13.8,0,27.5,0,41.3v67.4H2.2
	c0-13.5,0-27.1-0.1-40.6C2,214.3,2,201,2,187.7c0-12.9-0.1-25.8-0.1-38.7c0-13-0.1-26-0.1-39c0-13.6-0.1-27.2-0.1-40.8
	C1.6,55.7,1.6,42.3,1.6,28.8c0-9.1-0.1-18.2-0.1-27.3H470l4,3.7l0.9,1.4l1.7,0.4l0.6,0.3l0.7,1.5l0.3,0.7l7.6,4.7L491,11l1.1-0.6
	l2.8-0.3l0.9,0.5l0.5,1.1l-0.6,2.2l1,1.3l3.1,1.9l0.7,0.9l-0.1,0.9l-0.4,2.8l0.8,1.7l0.4,0.6l-0.2,1l-1.1,1.1l-1.5-0.1l-3.4-1
	l-0.6,0.3L494,26l-0.2,0.9l-0.2,2.2l-1,0.9l-0.8,0.5l-3.3,3.8l-0.4,3.5l-0.1,1l-0.2,0.7l-2.6,0.6l-0.5,0.3l-0.1,1.8l2.1,3.2l1.6,1.2
	l2.2,4.2l8.8,6.2l3.8,10.4l0.7,0.9l0.1,1.9l6.1,5.3l5.8,0.6l3.6,1.8L518.4,79.9z"/>
<g id="Layer_2">
</g>
<path id="Knife" class="st1" d="M383.9,231.8c-4.6-0.1-2.5-6.9,1.2-6.9s14.8,4.6,24.5-0.6c0-4,0.6-9.8,0.7-12.4
	c21.2,0.3,50.6,3.3,63.3,20.1C457.9,231.7,387.4,231.9,383.9,231.8z"/>
<g id="Layer_6">
	<path class="st1" d="M107,50.3c0.2,0.2,0.2,0.7-0.1,1.1c-5.4,5.2-10.8,3.9-13.4,3.9c-0.3,0.4,0,21.8,0.4,22.3
		c0.2,0.2,0.7,0.2,1.4,0.4c0.2,0.1,0.3,0.4,0.3,0.6c-1.6,0.7-5.7,2-5.9,1.9c-0.1-0.1-0.1-0.1,0.1-0.7c0.1-0.3,0.8-0.5,0.9-1.2
		c0.1-0.5,0.1-23.8-0.2-24c-2.8-1.5-9.5,0.9-10.6,1.9c-0.1,0.1-0.4,0.1-0.5-0.1c-0.2-0.2,0-0.6,0.1-0.7c0.7-0.5,3.7-2.6,11.5-4
		c2.3-0.4,5.2,1.1,8.4,1.3c2,0.2,4,0.5,6.8-2.2C106.5,50.5,106.7,50.1,107,50.3z"/>
	<path class="st1" d="M69.4,57.9c0.1,0,0.2,0,0.3,0c-0.2,0.8,1.1,1.5,0.7,1.8c-1.8,2.4-1.8,4-0.8,5.2c0.4,0.4,0.4,0.8,0,1.2
		c-0.2,0.1-0.4-0.4-0.7-0.9s-0.3-1.4-0.8-1.1c-0.5,0.2-3.7,1.8-4.7,2.3c0,3.7,0.1,7.4,0.1,8.6c0.7-0.1,2.1,0,2.7-0.6
		c1.1-1.1,1.1-2,1.3-2.1c1.1,0.4,0.7,1.7,0.7,2.6c0.1,1.3,0.7,2.1-0.4,2.4c-0.7-1.2-2.7-0.7-4-0.4c-0.2,1.5-0.1,9.4,0.1,9.6
		c2.2-0.4,5.4-0.8,6-4c0.1-0.1,0.1-0.1,0.3-0.1c0.1,0.1,0.2,0.1,0.3,0.2c0.1,1.2,0,4.2-1.4,4.8c-1.8,0.7-6.9,2.2-9.4,2.9
		c-0.1,0.1-0.7-0.3-0.5-0.5c0.3-0.3,1.4-0.7,1.4-1.7c0.1-5.5,0-18.3-0.1-19.9c-1.4,0.8-2.1,0.4-2,0.1c2.1-2.6,1.7-2.4,2.2-3.1
		c2.3-1.1,5.6-2.5,7.2-3.4C68.2,61.6,69,60.5,69.4,57.9z"/>
	<path class="st1" d="M87.6,80c0.3,0.4,1.4,0.2,1.7,0.4c-0.1,0.1-0.1,0.2-0.1,0.4c-0.5,0.2-3.2,1.1-4.1,1.5c0,0-0.5,0.2-0.5-0.3
		c0.1-0.7,1.7-1.4,1.5-1.7c-2.8-7.3-5.5-7.1-9.4-7.1c-0.4,0-0.8,6.8-1.2,9.2c-0.2,1.8,0.7,1.2,1.6,1.6c0.8,0.3,0.3,0.9-0.2,1.2
		c-1.5,0.5-3.9,1.2-5.6,1.7c-0.4,0.1-0.7-0.2-0.6-0.4c0.1-0.2,1.6-0.9,1.7-1.8c0.9-6.5,2.8-24.5,3.2-26.9c-0.4,0.1-0.4-0.3-0.3-0.6
		c0.4-0.5,1.6-1.2,2.3-1.5c0.3-0.2,0.5,0.4,0.7,0.7c-0.1,1.2-0.3,3.2-0.4,4.2C79,62.6,86.2,77.1,87.6,80z M77.5,63
		c-0.2,1.6-0.7,5.4-0.7,6.3c1.4-0.1,3.3,0.3,5.1,2.1C81,69.7,78.1,63.8,77.5,63z"/>
	<path class="st1" d="M38.1,121.5c-0.2-0.7-0.4-2.4-2.4-3.1c-0.7-0.3-1.6-0.3-2.1-0.2c-1.1,0.3-1.3,1.2-1.6,0.7
		c-0.1-0.1-0.3-0.7,1.5-1.4c1.8-0.5,4.9,0.2,6.6-2.7c0.8-1.5,1.1-3.7,0.6-5.4c-0.4-1.9-2-2.9-1.2-3.6c0.3-0.2,4.8,4.5,5.6,6.1
		c2.3,4.4-2,7.2-2,11.6c0,3.2,2.5,5.7,4.3,6.9c3.3,2.2,9.2,1.7,11.8-2.3c1.7-2.5,2.3-6.8,0-10.5c-2.1-3.4-8.6-4.7-11.4-6.1
		c-6.6-3.3-7.6-8.3-6.8-11.5c1.1-4.4,6.1-6.5,8.5-6.8c0.1-6.6,0-8,0.3-17.9c-1.1,1.2-12.3,14.3-11.3,16.8c0.8,2,3.6,0.1,4.2-1.5
		c0.1,0.1,0.4,0.3,0.6,0.5c-1.7,4.5-6.3,4.7-7.8,2.3c-1.2-1.8,0.3-5.6,2-7.8c-3.8-4.2-7.9-5.5-9.5-6.1c-0.3,0.4-0.9,38.9-0.3,39.5
		c1.5,0.1,1.4-1.5,3.1-1.5c-2.7,6.8-7.5,2-10.2,7.3c-0.7-0.1,0.1-3.3,2.8-5.2c0-15.6,0-37.4,0-41.8c-0.7-2.5-4.7-1.2-6.1-0.3
		c-0.1,0.1-0.7-0.6-0.3-0.8c3.9-3.1,7.6-5.3,23.7,4c11.2-16,18-17.2,18.5-16.1c-2.1,1.6-4.8,4.3-5.2,5.6c-0.3,4.5-0.1,20.8,0.3,23.9
		c1.5,0.7,2.9,1.7,3.6,2.2c0.5-1.2,1.2-2.2,1.7-1.8c0.6,0.4-0.9,2.9,0,5.4c1.4,3.2,2.7,8.5,0.3,8.6c-1.2,0,0.6-6.3-7.3-9.8
		c-5.7-2.5-7.1,1.8-7.2,2.2c0-0.1-2.2,4.4,7.9,8.1c18.5,7.2,12.3,25.1,2.2,28.2C43,141.3,35,126.4,38.1,121.5z"/>
	<path class="st1" d="M94.5,99.4c-0.2,0.2-0.8-0.1-1.2-0.8c-0.3-0.7,0.1-2.7-0.1-2.8c-0.3-0.2-7.2-0.4-7.6,0.3c-0.5,2.5-0.2,8,0,8.4
		c0.1,0.2,3.1,0.3,4.6,0.1c0.7-0.1,0.2-1.1,0.3-1.2c0.7,0,0.7,0.5,0.8,1.7c0.1,0.7,0.3,1.6,0.3,2.1c0,0.6-0.9,0.8-1.2,0.7
		c-0.3-0.2,0.4-1.3-0.2-1.3c-1.7-0.1-4.7-0.1-4.7,0c-0.2,0.5-0.3,7.6-0.1,8c0.1,0.2,3.9,0.2,7.1,0.2c0.9,0,2.2-2,2.7-2.1
		c0.4,0,0.9,0,1.1,0.5c-0.3,1.3-1.6,3.4-2.3,3.4c-6.2-0.4-10.8,0.1-11.3-0.2c-0.2-0.3,0.7-1.2,0.7-1.9c0-0.8,0-11.9,0-18.3
		c-0.4-0.5-1.1-0.4-1.3-0.7c-0.1-0.3,0.7-0.9,1.1-1.4c0.2-0.2,6.8,0.2,10.2-0.2c1.9-0.2,1.2-1.4,1.3-1.5c0.1,0,1.3,0.8,0.9,2
		c-0.3,1.3-1.1,1.7-1.2,2.3C94.2,98.3,94.7,99,94.5,99.4z"/>
	<path class="st1" d="M79.6,94.2c-0.2-0.2-4.5-0.3-4.7,0c-0.1,0.1-0.6,0.4-0.4,0.7c0.3,0.7,1.3,0.7,1.6,1.4c0.1,3.1,0.4,6.2,0.3,7.3
		c-1.2,0.3-1.9,0-6.3,0c-0.4-3.1-0.3-6-0.2-7.5c0.1-0.8,1.7-0.8,2-1.2c0.1-0.3-0.4-0.7-0.3-0.8c-2.5,0-4.2,0-5.8,0
		c-0.1,0.2-0.7,0.5-0.5,0.8c0,0.1,1.8,0.4,1.9,1.4c0.6,4.4,0.2,16.4,0.2,17.5c0,0.9-1.6,1.7-1.7,2.2c0,0,0.2,0.6,0.9,0.6
		c1.3,0,4.1,0,4.7,0c0.5,0,0.7-0.3,0.7-0.6c0.1-0.5-2.1-1.4-2-2.2c0-1.3,0-5.7,0-8.4c0,0,6.6,0.1,6.6,0c0.1,1.5,0.1,6.7,0.1,8.4
		c0,0.7-2.4,1.9-2.6,2.3c-0.1,0.3,0.2,0.6,0.7,0.6c1.3,0.1,3.9-0.1,5.6,0c0.5,0,0.9-0.4,0.6-0.7c-0.7-0.6-2.1-1.4-2.1-2.1
		c0-4.7-0.2-14.3-0.2-17.5c0-0.8,1.3-0.9,1.5-1.3C80.4,94.6,79.6,94.3,79.6,94.2z"/>
	<path class="st1" d="M104.7,116.3c-1.6-0.1-7.3,0.1-7.9,0c0,0.1-0.3-0.5-0.3-0.8c0.6-0.3,1.5-0.5,1.9-1.3c0.4-1.1,0.3-16.9-0.1-18
		c-0.2-0.4-0.6-0.7-1.7-0.7c0-0.3,0-0.7,0-1.2c0.1-0.1,0.3-0.3,0.3-0.4c1.7-0.1,3.9,0,7.4,0c1.1,0,9.5,2.8,9.5,11.5
		C113.7,115.8,105.3,116.3,104.7,116.3z M100.6,95.8c-0.2,0.3-0.2,17.6,0.1,17.9c0.2,0,10.9,0.8,10.6-8.1
		C111,94.6,101.3,95.8,100.6,95.8z"/>
	<path class="st1" d="M61.1,96c0.3,0,0.4,0.6,0.3,1.2c-0.6,2.7,2,6.2,1.3,9.9c-0.1,0.3-0.1,0.4-0.3,0.4s-0.2-0.3-0.1-0.5
		c0.2-3.5-2.2-7.5-1.7-9.9C60.7,95.8,60.7,96,61.1,96z"/>
	<path class="st1" d="M48.1,104.9c-0.2,0.2-0.5,0.1-0.8-0.4c-0.9-1.2-0.9-3.4-0.1-4.3c0.2-0.2,0.7-0.7,0.9-0.4
		c0.2,0.2-0.1,0.5-0.3,0.8c-0.4,0.3-0.9,2.2,0,3.6C48.1,104.6,48.2,104.8,48.1,104.9z"/>
	<path class="st1" d="M97.8,113.4L97.8,113.4C97.8,113.5,97.8,113.5,97.8,113.4C97.8,113.5,97.8,113.5,97.8,113.4
		C97.8,113.5,97.8,113.5,97.8,113.4z"/>
	<path class="st1" d="M66.6,119.6c0.2-0.1,0.3,0.2,0.3,0.3c2.1,6-0.5,13.3-5.6,16.7c-0.1,0.1-0.3,0.1-0.4,0c-0.1-0.1-0.1-0.2,0-0.3
		c1.4-1.6,7.7-6.5,5.6-16.3C66.5,119.8,66.4,119.6,66.6,119.6z"/>
	<path class="st1" d="M48.4,129.6c-0.2,0.3-0.9-0.2-1.4-0.5c-2.7-1.9-3.3-4.9-2.5-7.6c0.1-0.3,0.1-0.6,0.3-0.6s0.3,0.3,0.3,0.6
		c0,0.5-1.1,4.3,2.2,6.9C47.6,128.8,48.7,129.3,48.4,129.6z"/>
	<path class="st1" d="M101.5,96.7c0,1.4,0,15.4,0,16.3c0,0.1-0.7,0.1-0.7,0c0-1.3,0-15.5,0-16.3C100.8,96.5,101.5,96.5,101.5,96.7z"
		/>
	<path class="st1" d="M86.7,107.1c0,1.4,0,6.1,0,7.1c0,0.1-0.7,0.1-0.7,0c0-1.3,0-6.2,0-7.1C86,106.9,86.7,106.9,86.7,107.1z"/>
	<path class="st1" d="M80.1,96.2c0,1.4,0,16.8,0,17.8c0,0.1-0.7,0.1-0.7,0c0-1.3,0-16.9,0-17.8C79.3,96,80.1,96,80.1,96.2z"/>
	<path class="st1" d="M86.7,96.3c0,1.4,0,6.8,0,7.8c0,0.1-0.7,0.1-0.7,0c0-1.3,0-6.9,0-7.8C86,96.2,86.7,96.2,86.7,96.3z"/>
	<path class="st1" d="M70.9,96.5c0,1.4,0,5.8,0,6.8c0,0.1-0.7,0.1-0.7,0c0-1.3,0-6,0-6.8C70.3,96.3,70.9,96.3,70.9,96.5z"/>
	<path class="st1" d="M71,105.7c0,1.4,0,7.3,0,8.2c0,0.1-0.7,0-0.7-0.4c0-1.3,0-6.9,0-7.8C70.3,105.6,71,105.6,71,105.7z"/>
	<path class="st1" d="M95,56.1c0,1.4,0,20,0,20.9c0,0.1-0.7,0.1-0.7,0c0-1.3,0-20.2,0-21.1C94.3,55.7,95,55.8,95,56.1z"/>
	<path class="st1" d="M78.5,65.3c0,1.4-0.2,2.7-0.2,3.7c0,0.1-0.7,0.1-0.7,0c0-1.3,0.3-3.1,0.3-3.9C77.9,64.9,78.5,65.2,78.5,65.3z"
		/>
	<path class="st1" d="M77.8,73.8c0,1.4-0.7,8.2-0.7,9.3c0,0.1-0.7-0.1-0.7-0.3c0-1.3,0.8-8.4,0.8-9.3C77.1,73.4,77.8,73.7,77.8,73.8
		z"/>
	<path class="st1" d="M55.8,69.4c0,1.4,0,23.8,0,24.7c0,0.1-0.7,0.1-0.7,0c0-1.3,0-22.9,0-23.8C55.1,70.2,55.8,69.2,55.8,69.4z"/>
	<path class="st1" d="M64.9,77.1c0,1.4,0,7.7,0,8.6c0,0.1-0.7,0.1-0.7,0c0-1.3,0-7.7,0-8.5C64.2,77,64.9,76.9,64.9,77.1z"/>
	<path class="st1" d="M64.6,66.4c0,1.4,0,7.1,0,8c0,0.1-0.7,0.1-0.7,0c0-1.3,0-6.6,0-7.6C64,66.8,64.6,66.3,64.6,66.4z"/>
	<path class="st1" d="M29.5,81.2c0,1.4,0,34.9,0,36c0,0.1-0.7,0.5-0.7,0.4c0-1.3,0-35.8,0-36.6C28.8,80.8,29.5,81.1,29.5,81.2z"/>
	<path class="st1" d="M28.7,62.5c-0.1-0.7,0-1.2-0.1-1.6c-0.3-0.2-0.5-0.2-0.7-0.2c-0.3,0-0.6,0-1.1,0c-0.3,0-0.7,0-1.3,0
		c-0.8,0-1.6,0-2.1,0s-0.8,0-0.8,0l-1.1,0.1c0,0-0.3,1.1-0.3,1.9c0,0.1,0.2,0.1,0.2,0.1c0.4-1.7,1.2-1.6,2.5-1.4
		c0.5,0.1,0.4,4,0.3,5.7c-0.1,0.4-0.1,0.6-0.7,0.8c-0.6,0.1-0.3,0.3-0.1,0.3l1.7-0.1h1.3c0.5,0,0.4-0.3,0-0.4
		c-0.2-0.1-0.7-0.3-0.7-0.9c-0.1,0-0.2-5.1,0.1-5.5c0.2-0.2,1.6-0.3,2,0c0.5,0.3,0.9,1.3,0.8,1.3C28.7,62.6,28.7,62.6,28.7,62.5
		C28.8,62.7,28.8,62.6,28.7,62.5z"/>
	<path class="st1" d="M37.1,67.8c-0.3-0.1-0.6-0.4-0.6-0.7v-5.5c0-0.3,0.3-0.6,0.4-0.6c0.9-0.4,0-0.3,0-0.3H36c-0.4,0-0.7,0-1.1,0
		c-1.2,0,0.3,0.2,0.3,0.9v2.2c-0.2,0.1-3.3,0-3.3,0v-2.3c0-0.2,0-0.3,0.3-0.5c0.2,0,0.4-0.3,0.3-0.3c-0.3,0-0.6,0-0.9,0H30
		c-0.6,0,0,0.3,0.1,0.4c0.1,0,0.3,0.3,0.3,0.6s0,5.8,0,5.8c0,0.3-0.1,0.3-0.2,0.4s-0.5,0.4-0.1,0.4s1.2,0,1.2,0c-0.1,0,0.5,0,0.9,0
		c0.5-0.1-0.1-0.3-0.2-0.4c-0.2-0.1-0.3-0.4-0.3-0.4c-0.1-0.2-0.1-2.5,0-2.8c0.2-0.3,3.2-0.2,3.4,0c0.1,0.4,0.1,2.6,0.1,2.6
		c0,0.2-0.1,0.5-0.5,0.7s-0.1,0.3-0.1,0.3c0.2,0,1.1,0,1.2,0c0.5,0,1.1,0,1.4,0C37.7,68.4,37.4,67.9,37.1,67.8z"/>
	<path class="st1" d="M42.5,67.4c0,0-1.2,0-1.4-0.3s-0.1-2.5,0-2.6s1.4,0,1.4,0c0.5,0,0.8,0,1.1,0.1c0.1,0.1,0.1-0.1,0.2,0.4
		s0.4,0.2,0.4,0.1c-0.3-0.5,0.2-0.9,0-1.7c-0.1-0.3-0.3-0.4-0.3,0c-0.1,0.5-0.1,0.3-0.3,0.4c-0.2,0.1-2.2,0.2-2.3,0s-0.3-1.4,0-2.6
		c4.4-0.5,4.1,0.8,4.7,0.9c0.1,0,0.1,0,0.2-0.3c0.1-0.3-0.5-1.4-0.5-1.4c0.5,0-3.2,0-5.3,0.1c-0.4,0-0.7,0-0.9,0s-0.3,0-0.3,0.1
		s0.2,0,0.4,0.1s0.4,0,0.4,0.1c0.1,0,0.1,0.1,0.1,0.2c0,0,0,0.3,0,0.7c0,0,0,3.4,0,5.4c-0.1,0.4-0.3,0.6-0.6,0.7c-0.5,0,0,0.4,0,0.4
		h0.7c1.7,0,5.5,0,5.5-0.1c0.1-0.2,0.6-0.9,0.6-1.2c0-0.1-0.1-0.6-0.3-0.6C45.5,66.5,45.3,67.4,42.5,67.4z"/>
</g>
<g id="Layer_7">
	<path class="st1" d="M81.8,190.7c-0.2,0-0.4,1.7-0.6,1.9c-2.4,0.7-3.3,1.3-4.2,0.9c0-2.5,2.7-4.4,4.8-8.5c-1.2-1.3-2.7-3.7-3.6-4
		c-4.5,2.1-10.5,1.7-12.2,1.4c-0.1,1.8-2,3.7-2.4,4c-0.3,0.8-0.3,1.2-0.2,1.3c1.1,0.9,1.2,2.4,1.1,2.8c-0.1-0.2-0.6-0.9-0.9-0.9
		c-0.1,0.6-0.3,2.5-0.5,2.8c-0.8,1.2-2.7,1.2-3.4,1.1c-0.5-1.5,1.4-3.7,1.2-5.2c-0.4-1.1-0.8-1.6-1.2-2.6c-0.2-0.6-0.3-2.5-0.5-2.5
		c-0.5,0-0.7,2-1.5,3.3c-0.6,0.9-2.3,1.3-3.1,2.4c0.5,1.1,0.6,3.9,0.5,3.9s-0.7-1.4-1.1-1.5c-0.2,0-0.2,2.3-0.9,3.2
		c-0.6,0.5-2.6,0.1-3.8,0.8c-0.2-0.1-0.3-1.9,1.5-4.1c1.1-2.2,2.2-5.4,1.8-6c-0.9-1.4-1.1-3.2-1.2-4.7c-1.7,1.4-5.5,2.5-8.4,1.8
		c-4.7-1.3-6.4-2.5-10.8-0.4c-0.3-0.2,0.1-1.3,1.2-2c-1.3-0.2-3.3-0.1-4.3-1.2c-2.1-2.1-3.9-5.4-3.3-5.8c0.3-0.2,1.8,0.3,3.4-0.7
		c4-2.5,8-4.8,10.3-8.2c-1.2,0-2-0.2-2.7-0.9c-0.5-0.6-1.5-2.5-3.9-2.6c0-1.4,9.3-2,11.8-0.4c23.4-17.9,51.4-10.8,54.1-2.4
		c2.3,2.7,5.5,4.4,8.8,4.2c-2.1,3.1-7.7,0.7-8.4-0.5c0,0-0.1,0-0.2,0c0.6,5.1-1.7,8.8-3.2,11.6c-0.4,2.3,1.2,6.5,0.3,7.9
		c-0.9,1.5-2.6,4.5-3.2,6.3c-0.9,3.3,0.1,4.1-1.2,5.2c-0.2-0.7-0.5-0.8-0.5-0.8c-0.3,0-0.3,1.9-0.9,2.5c-0.9,0.9-2,0.4-4.1,1.5
		c-1.4-1.1,3.3-5.6,3.9-10.5c-0.9-1.7-2.6-3.1-3.5-3.3c-0.7,6.3-3.3,6.6-3.3,7.3c0,1.8-0.4,3.4-0.8,3.4
		C82.3,191.1,82,190.7,81.8,190.7z"/>
</g>
<g class="st2">
	<path class="st1" d="M420.7,43l58.3,1.1v8l-47.3,10.3L479,72.8v8l-58.3,1.1v-6.6l42.4-0.6l-42.4-9.9v-4.6l42.4-9.8l-42.4-0.6V43z"
		/>
	<path class="st1" d="M420.7,100.7H479v22.6h-6v-14.5h-19.3v11.8h-5.8v-11.8h-21.4v14.6h-5.8V100.7z"/>
	<path class="st1" d="M420.7,136.8l58.3,12.5v7.8l-58.3,12.5v-7.7l14.7-2.7v-11.9l-14.7-2.8V136.8z M441.2,148.3v9.7l26.4-4.9
		L441.2,148.3z"/>
	<path class="st1" d="M420.7,189.1H473v-10.7h6v29.1h-6v-10.3h-52.3V189.1z"/>
</g>
<g class="st2">
	<path class="st1" d="M168.2,201.1V92.6h41.9v10.9h-26.8v36h20.7v10.8h-20.7v50.8H168.2z"/>
	<path class="st1" d="M234.3,201.1V92.6h14.9v108.5H234.3z"/>
	<path class="st1" d="M279.7,201.1V92.6H290l30.8,72v-72h12.6v108.5h-9.7L292.5,127v74.1H279.7z"/>
	<path class="st1" d="M363.5,201.1V92.6h42v11.2h-26.9v35.9h21.9v10.8h-21.9v39.8h27.2v10.9H363.5z"/>
</g>
<g class="st2">
	<path class="st1" d="M178.7,81.5c-1.6,0-2.9-0.2-4.1-0.6c-1.2-0.4-2.1-1-2.9-1.7c-0.7-0.7-1.3-1.6-1.8-2.7c-0.5-1.1-0.8-2.2-1-3.4
		c-0.2-1.2-0.3-2.5-0.3-3.9V53.5c0-1.5,0.1-2.9,0.3-4.1s0.5-2.3,1-3.4s1.1-1.9,1.8-2.6s1.7-1.2,2.9-1.6c1.2-0.4,2.5-0.6,4.1-0.6
		c1.7,0,3.2,0.3,4.4,0.8c1.2,0.5,2.2,1.3,2.9,2.3s1.2,2.2,1.5,3.5c0.3,1.3,0.5,2.9,0.5,4.7v2.4h-3.5v-2.3c0-1.4-0.1-2.6-0.2-3.5
		s-0.4-1.8-0.8-2.6s-1-1.4-1.8-1.7s-1.8-0.6-3-0.6c-1.3,0-2.4,0.2-3.2,0.6c-0.8,0.4-1.5,1-1.9,1.9s-0.7,1.8-0.9,2.7
		c-0.2,1-0.2,2.2-0.2,3.6v16.7c0,3.1,0.5,5.3,1.4,6.7c0.9,1.4,2.5,2.1,4.9,2.1c1,0,1.8-0.1,2.5-0.4c0.7-0.3,1.3-0.6,1.7-1.1
		c0.4-0.5,0.8-1.1,1-1.8c0.2-0.8,0.4-1.5,0.5-2.3s0.1-1.8,0.1-2.9v-2.6h3.5v2.3c0,1.4-0.1,2.7-0.3,3.9c-0.2,1.1-0.5,2.2-0.9,3.2
		s-1,1.9-1.7,2.5c-0.7,0.7-1.6,1.2-2.7,1.6S180.1,81.5,178.7,81.5z"/>
	<path class="st1" d="M202.7,81V41.6h9c3.5,0,6,0.8,7.5,2.5c1.5,1.7,2.3,4.2,2.3,7.4c0,5.4-1.8,8.5-5.5,9.3L222,81h-3.7l-5.8-19.4
		h-6.2V81H202.7z M206.4,58.9h5c2.4,0,4-0.6,5-1.7s1.4-3,1.4-5.6c0-2.5-0.4-4.4-1.3-5.5c-0.9-1.1-2.5-1.7-4.9-1.7h-5.1V58.9z"/>
	<path class="st1" d="M234.5,81l8.3-39.4h3.9l8.4,39.4h-3.6l-1.9-10.5h-9.4l-2,10.5H234.5z M240.6,67.8h8.4l-4.2-21.2L240.6,67.8z"
		/>
	<path class="st1" d="M268.7,81V41.6H283v2.8h-10.5v14.8h8.7V62h-8.7V81H268.7z"/>
	<path class="st1" d="M300.7,81V44.5h-7.9v-2.9h19.4v2.9h-7.7V81H300.7z"/>
	<path class="st1" d="M324.5,81V41.6h3.7V81H324.5z"/>
	<path class="st1" d="M344.1,81V41.6h2.7l12.5,30.6V41.6h3.2V81h-2.6l-12.6-30.9V81H344.1z"/>
	<path class="st1" d="M387.2,81.5c-1.8,0-3.4-0.3-4.7-0.9s-2.3-1.4-3-2.6s-1.3-2.4-1.6-3.9c-0.3-1.5-0.5-3.2-0.5-5.2V53.6
		c0-2,0.2-3.7,0.5-5.2c0.3-1.4,0.8-2.7,1.6-3.9c0.7-1.1,1.8-2,3.1-2.5c1.3-0.6,2.9-0.9,4.9-0.9c3.4,0,5.8,0.9,7.3,2.8
		c1.5,1.9,2.2,4.7,2.2,8.5v1.4h-3.5v-1.4c0-2.9-0.4-5.1-1.3-6.4s-2.4-2-4.7-2c-1.1,0-2,0.2-2.7,0.5c-0.8,0.3-1.4,0.7-1.8,1.2
		c-0.5,0.5-0.8,1.2-1.1,2c-0.3,0.8-0.4,1.6-0.5,2.5s-0.1,1.8-0.1,3v16.2c0,1.5,0.1,2.8,0.3,3.9c0.2,1.1,0.5,2,1,2.8
		c0.5,0.8,1.1,1.4,2,1.8c0.8,0.4,1.9,0.6,3.1,0.6c2.3,0,3.9-0.8,4.8-2.3c0.9-1.5,1.3-3.8,1.3-6.9v-4.7H388V62h9.2V81h-2.4l-0.5-4.5
		C393.3,79.9,390.9,81.5,387.2,81.5z"/>
</g>
<g class="st2">
	<path class="st1" d="M17.6,232.6v-11.9h2.9c0.5,0,1,0.1,1.3,0.2c0.4,0.1,0.7,0.4,0.9,0.7c0.2,0.3,0.4,0.6,0.5,1
		c0.1,0.4,0.1,0.8,0.1,1.3c0,0.4-0.1,0.8-0.2,1.2s-0.3,0.7-0.5,1c-0.2,0.3-0.5,0.5-0.9,0.7c-0.4,0.2-0.8,0.2-1.3,0.2h-1.7v5.6H17.6z
		 M18.8,226.1h1.4c0.7,0,1.3-0.2,1.6-0.5c0.3-0.3,0.5-0.9,0.5-1.8c0-0.9-0.1-1.5-0.4-1.9s-0.8-0.5-1.6-0.5h-1.4V226.1z"/>
	<path class="st1" d="M27.7,232.6v-11.9h2.7c1.1,0,1.8,0.3,2.3,0.8c0.5,0.5,0.7,1.3,0.7,2.2c0,1.6-0.6,2.6-1.7,2.8l1.8,6.1h-1.1
		l-1.7-5.9h-1.9v5.9H27.7z M28.8,225.9h1.5c0.7,0,1.2-0.2,1.5-0.5c0.3-0.4,0.4-0.9,0.4-1.7c0-0.8-0.1-1.3-0.4-1.7
		c-0.3-0.3-0.8-0.5-1.5-0.5h-1.6V225.9z"/>
	<path class="st1" d="M41,232.7c-0.6,0-1.1-0.1-1.5-0.3c-0.4-0.2-0.7-0.4-1-0.8c-0.2-0.3-0.4-0.7-0.5-1.2c-0.1-0.4-0.2-0.9-0.2-1.5
		v-5c0-0.6,0.1-1.1,0.2-1.5c0.1-0.4,0.3-0.8,0.5-1.1c0.2-0.3,0.6-0.6,1-0.7c0.4-0.2,0.9-0.3,1.5-0.3s1.1,0.1,1.5,0.3
		c0.4,0.2,0.7,0.4,1,0.7c0.2,0.3,0.4,0.7,0.5,1.1c0.1,0.4,0.2,0.9,0.2,1.5v5c0,0.4,0,0.8-0.1,1.2c-0.1,0.4-0.2,0.7-0.3,1
		c-0.1,0.3-0.3,0.6-0.6,0.8c-0.2,0.2-0.5,0.4-0.9,0.5C41.9,232.7,41.5,232.7,41,232.7z M40.1,231.7c0.3,0.1,0.6,0.2,1,0.2
		s0.7-0.1,1-0.2c0.3-0.1,0.5-0.3,0.6-0.5c0.1-0.2,0.2-0.5,0.3-0.8c0.1-0.3,0.1-0.6,0.1-1v-5.4c0-0.4,0-0.7-0.1-1
		c-0.1-0.3-0.2-0.5-0.3-0.8s-0.3-0.4-0.6-0.5c-0.3-0.1-0.6-0.2-1-0.2s-0.7,0.1-1,0.2c-0.3,0.1-0.5,0.3-0.6,0.5s-0.2,0.5-0.3,0.8
		c-0.1,0.3-0.1,0.6-0.1,1v5.4c0,0.4,0,0.7,0.1,1c0.1,0.3,0.2,0.5,0.3,0.8C39.6,231.4,39.8,231.5,40.1,231.7z"/>
	<path class="st1" d="M48.9,232.6v-11.9h2.6c0.5,0,0.9,0.1,1.3,0.2s0.7,0.3,0.9,0.5c0.2,0.2,0.4,0.4,0.6,0.7c0.2,0.3,0.3,0.6,0.3,1
		c0.1,0.3,0.1,0.7,0.1,1.2v4.7c0,0.6-0.1,1.1-0.2,1.5s-0.3,0.8-0.5,1.2c-0.2,0.3-0.6,0.6-1,0.8c-0.4,0.2-0.9,0.3-1.5,0.3H48.9z
		 M50,231.7h1.5c0.4,0,0.7-0.1,0.9-0.2c0.3-0.1,0.5-0.2,0.6-0.4c0.1-0.2,0.3-0.4,0.3-0.7s0.1-0.5,0.2-0.8c0-0.3,0-0.6,0-1v-4.5
		c0-0.4,0-0.7,0-1s-0.1-0.5-0.2-0.8c-0.1-0.2-0.2-0.4-0.4-0.6s-0.4-0.3-0.6-0.3c-0.3-0.1-0.6-0.1-0.9-0.1H50V231.7z"/>
	<path class="st1" d="M62.4,232.7c-0.5,0-0.9-0.1-1.3-0.2c-0.4-0.1-0.7-0.3-0.9-0.5c-0.2-0.2-0.4-0.4-0.5-0.7
		c-0.1-0.3-0.2-0.6-0.3-0.9c-0.1-0.3-0.1-0.7-0.1-1.1v-8.7h1.1v8.7c0,0.3,0,0.6,0.1,0.8c0,0.2,0.1,0.5,0.2,0.7s0.2,0.4,0.3,0.5
		c0.1,0.1,0.3,0.3,0.6,0.3c0.2,0.1,0.5,0.1,0.8,0.1c0.4,0,0.7-0.1,1-0.2c0.3-0.1,0.5-0.3,0.6-0.5c0.1-0.2,0.2-0.5,0.3-0.8
		c0.1-0.3,0.1-0.6,0.1-1v-8.7h1.1v8.7c0,0.4,0,0.8-0.1,1.1s-0.2,0.6-0.3,0.9c-0.1,0.3-0.3,0.5-0.6,0.7c-0.2,0.2-0.5,0.3-0.9,0.5
		S62.9,232.7,62.4,232.7z"/>
	<path class="st1" d="M73.1,232.7c-0.5,0-0.9-0.1-1.2-0.2c-0.4-0.1-0.6-0.3-0.9-0.5c-0.2-0.2-0.4-0.5-0.5-0.8s-0.2-0.7-0.3-1
		c-0.1-0.4-0.1-0.8-0.1-1.2v-4.7c0-0.5,0-0.9,0.1-1.2c0.1-0.4,0.2-0.7,0.3-1c0.1-0.3,0.3-0.6,0.6-0.8c0.2-0.2,0.5-0.4,0.9-0.5
		s0.8-0.2,1.2-0.2c0.5,0,1,0.1,1.3,0.2c0.4,0.2,0.7,0.4,0.9,0.7c0.2,0.3,0.4,0.7,0.5,1.1c0.1,0.4,0.1,0.9,0.1,1.4v0.7h-1.1V224
		c0-0.4,0-0.8-0.1-1.1c0-0.3-0.1-0.5-0.2-0.8c-0.1-0.2-0.3-0.4-0.5-0.5c-0.2-0.1-0.5-0.2-0.9-0.2c-0.4,0-0.7,0.1-1,0.2
		c-0.3,0.1-0.4,0.3-0.6,0.6c-0.1,0.3-0.2,0.5-0.3,0.8s-0.1,0.7-0.1,1.1v5.1c0,0.9,0.1,1.6,0.4,2s0.8,0.6,1.5,0.6
		c0.3,0,0.5,0,0.8-0.1c0.2-0.1,0.4-0.2,0.5-0.3c0.1-0.1,0.2-0.3,0.3-0.6c0.1-0.2,0.1-0.5,0.2-0.7s0-0.5,0-0.9v-0.8H76v0.7
		c0,0.4,0,0.8-0.1,1.2c-0.1,0.3-0.1,0.7-0.3,1c-0.1,0.3-0.3,0.6-0.5,0.8c-0.2,0.2-0.5,0.4-0.8,0.5S73.6,232.7,73.1,232.7z"/>
	<path class="st1" d="M80.7,232.6v-11.9H85v0.9h-3.2v4.5h2.6v0.8h-2.6v4.9H85v0.8H80.7z"/>
	<path class="st1" d="M89.5,232.6v-11.9h2.6c0.5,0,0.9,0.1,1.3,0.2s0.7,0.3,0.9,0.5c0.2,0.2,0.4,0.4,0.6,0.7c0.2,0.3,0.3,0.6,0.3,1
		c0.1,0.3,0.1,0.7,0.1,1.2v4.7c0,0.6-0.1,1.1-0.2,1.5s-0.3,0.8-0.5,1.2c-0.2,0.3-0.6,0.6-1,0.8c-0.4,0.2-0.9,0.3-1.5,0.3H89.5z
		 M90.6,231.7h1.5c0.4,0,0.7-0.1,0.9-0.2c0.3-0.1,0.5-0.2,0.6-0.4c0.1-0.2,0.3-0.4,0.3-0.7s0.1-0.5,0.2-0.8c0-0.3,0-0.6,0-1v-4.5
		c0-0.4,0-0.7,0-1s-0.1-0.5-0.2-0.8c-0.1-0.2-0.2-0.4-0.4-0.6s-0.4-0.3-0.6-0.3c-0.3-0.1-0.6-0.1-0.9-0.1h-1.5V231.7z"/>
	<path class="st1" d="M106.1,232.6v-11.9h1.1v11.9H106.1z"/>
	<path class="st1" d="M112.3,232.6v-11.9h0.8l3.8,9.3v-9.3h1v11.9h-0.8l-3.8-9.4v9.4H112.3z"/>
	<path class="st1" d="M130.1,232.6v-11.1h-2.4v-0.9h5.9v0.9h-2.3v11.1H130.1z"/>
	<path class="st1" d="M137.5,232.6v-11.9h1.1v5.3h3.8v-5.3h1.1v11.9h-1.1v-5.8h-3.8v5.8H137.5z"/>
	<path class="st1" d="M148.5,232.6v-11.9h4.3v0.9h-3.2v4.5h2.6v0.8h-2.6v4.9h3.2v0.8H148.5z"/>
	<path class="st1" d="M163.3,232.6v-11.9h1.1v11.1h3.4v0.8H163.3z"/>
	<path class="st1" d="M171.9,232.6v-11.9h1.1v11.9H171.9z"/>
	<path class="st1" d="M179.4,232.6v-11.1H177v-0.9h5.9v0.9h-2.3v11.1H179.4z"/>
	<path class="st1" d="M188.1,232.6v-11.1h-2.4v-0.9h5.9v0.9h-2.3v11.1H188.1z"/>
	<path class="st1" d="M195.4,232.6v-11.9h1.1v11.1h3.4v0.8H195.4z"/>
	<path class="st1" d="M204,232.6v-11.9h4.3v0.9h-3.2v4.5h2.6v0.8h-2.6v4.9h3.2v0.8H204z"/>
	<path class="st1" d="M218.8,232.6v-11.9h2.6c1,0,1.8,0.3,2.2,0.8c0.5,0.5,0.7,1.2,0.7,2.2c0,0.4,0,0.8-0.1,1.1s-0.2,0.6-0.5,0.9
		c-0.2,0.3-0.5,0.4-0.9,0.5c0.3,0.1,0.6,0.2,0.9,0.4c0.2,0.2,0.4,0.4,0.6,0.7c0.1,0.3,0.2,0.6,0.3,0.9c0.1,0.3,0.1,0.6,0.1,1
		c0,0.4,0,0.8-0.1,1.1s-0.1,0.6-0.3,0.9c-0.1,0.3-0.3,0.6-0.5,0.8c-0.2,0.2-0.5,0.4-0.8,0.5s-0.7,0.2-1.2,0.2H218.8z M219.9,225.8
		h1.6c0.6,0,1.1-0.2,1.3-0.6c0.3-0.4,0.4-0.9,0.4-1.6c0-0.8-0.2-1.3-0.5-1.6s-0.9-0.5-1.8-0.5h-1.1V225.8z M219.9,231.7h1.6
		c0.7,0,1.3-0.2,1.5-0.6s0.4-1.1,0.4-2c0-1.7-0.6-2.5-1.9-2.5h-1.6V231.7z"/>
	<path class="st1" d="M228.5,232.6l2.5-11.9h1.2l2.5,11.9h-1.1l-0.6-3.2h-2.8l-0.6,3.2H228.5z M230.3,228.6h2.5l-1.3-6.4
		L230.3,228.6z"/>
	<path class="st1" d="M239.1,232.6v-11.9h1.1v11.1h3.4v0.8H239.1z"/>
	<path class="st1" d="M247.7,232.6v-11.9h1.1v6.3l3.2-6.3h1.1l-2.5,5.1l3,6.8h-1.1l-2.7-6.2l-1,1.8v4.4H247.7z"/>
	<path class="st1" d="M257,232.6l2.5-11.9h1.2l2.5,11.9h-1.1l-0.6-3.2h-2.8l-0.6,3.2H257z M258.8,228.6h2.5l-1.3-6.4L258.8,228.6z"
		/>
	<path class="st1" d="M267.6,232.6v-11.9h0.8l3.8,9.3v-9.3h1v11.9h-0.8l-3.8-9.4v9.4H267.6z"/>
	<path class="st1" d="M285.4,232.6v-11.1H283v-0.9h5.9v0.9h-2.3v11.1H285.4z"/>
	<path class="st1" d="M292.8,232.6v-11.9h2.7c1.1,0,1.8,0.3,2.3,0.8s0.7,1.3,0.7,2.2c0,1.6-0.6,2.6-1.7,2.8l1.8,6.1h-1.1l-1.7-5.9
		h-1.9v5.9H292.8z M293.9,225.9h1.5c0.7,0,1.2-0.2,1.5-0.5c0.3-0.4,0.4-0.9,0.4-1.7c0-0.8-0.1-1.3-0.4-1.7c-0.3-0.3-0.8-0.5-1.5-0.5
		h-1.6V225.9z"/>
	<path class="st1" d="M302.7,232.6l2.5-11.9h1.2l2.5,11.9h-1.1l-0.6-3.2h-2.8l-0.6,3.2H302.7z M304.5,228.6h2.5l-1.3-6.4
		L304.5,228.6z"/>
	<path class="st1" d="M313.3,232.6v-11.9h2.6c0.5,0,0.9,0.1,1.3,0.2c0.4,0.1,0.7,0.3,0.9,0.5c0.2,0.2,0.4,0.4,0.6,0.7
		c0.2,0.3,0.3,0.6,0.3,1c0.1,0.3,0.1,0.7,0.1,1.2v4.7c0,0.6-0.1,1.1-0.2,1.5s-0.3,0.8-0.5,1.2c-0.2,0.3-0.6,0.6-1,0.8
		c-0.4,0.2-0.9,0.3-1.5,0.3H313.3z M314.4,231.7h1.5c0.4,0,0.7-0.1,0.9-0.2c0.3-0.1,0.5-0.2,0.6-0.4c0.1-0.2,0.3-0.4,0.3-0.7
		c0.1-0.3,0.1-0.5,0.2-0.8s0-0.6,0-1v-4.5c0-0.4,0-0.7,0-1s-0.1-0.5-0.2-0.8s-0.2-0.4-0.4-0.6c-0.2-0.1-0.4-0.3-0.6-0.3
		s-0.6-0.1-0.9-0.1h-1.5V231.7z"/>
	<path class="st1" d="M324,232.6v-11.9h1.1v11.9H324z"/>
	<path class="st1" d="M331.4,232.6v-11.1H329v-0.9h5.9v0.9h-2.3v11.1H331.4z"/>
	<path class="st1" d="M338.8,232.6v-11.9h1.1v11.9H338.8z"/>
	<path class="st1" d="M347.8,232.7c-0.6,0-1.1-0.1-1.5-0.3c-0.4-0.2-0.7-0.4-1-0.8c-0.2-0.3-0.4-0.7-0.5-1.2
		c-0.1-0.4-0.2-0.9-0.2-1.5v-5c0-0.6,0.1-1.1,0.2-1.5c0.1-0.4,0.3-0.8,0.5-1.1c0.2-0.3,0.5-0.6,1-0.7s0.9-0.3,1.5-0.3
		c0.6,0,1.1,0.1,1.5,0.3c0.4,0.2,0.7,0.4,1,0.7c0.2,0.3,0.4,0.7,0.5,1.1c0.1,0.4,0.2,0.9,0.2,1.5v5c0,0.4,0,0.8-0.1,1.2
		c-0.1,0.4-0.2,0.7-0.3,1s-0.3,0.6-0.6,0.8c-0.2,0.2-0.5,0.4-0.9,0.5C348.7,232.7,348.3,232.7,347.8,232.7z M346.9,231.7
		c0.3,0.1,0.6,0.2,1,0.2s0.7-0.1,1-0.2c0.3-0.1,0.5-0.3,0.6-0.5c0.1-0.2,0.2-0.5,0.3-0.8c0.1-0.3,0.1-0.6,0.1-1v-5.4
		c0-0.4,0-0.7-0.1-1c-0.1-0.3-0.2-0.5-0.3-0.8s-0.3-0.4-0.6-0.5c-0.3-0.1-0.6-0.2-1-0.2s-0.7,0.1-1,0.2c-0.3,0.1-0.5,0.3-0.6,0.5
		s-0.2,0.5-0.3,0.8c-0.1,0.3-0.1,0.6-0.1,1v5.4c0,0.4,0,0.7,0.1,1c0.1,0.3,0.2,0.5,0.3,0.8C346.4,231.4,346.6,231.5,346.9,231.7z"/>
	<path class="st1" d="M355.7,232.6v-11.9h0.8l3.8,9.3v-9.3h1v11.9h-0.8l-3.8-9.4v9.4H355.7z"/>
</g>
<g class="st2">
	<path class="st1" d="M132.5,46.3c0-0.5,0.1-0.9,0.2-1.3c0.1-0.4,0.3-0.7,0.5-0.9c0.2-0.2,0.4-0.4,0.7-0.5c0.3-0.1,0.6-0.2,0.9-0.3
		c0.3-0.1,0.7-0.1,1.1-0.1h8.7v1.1h-8.7c-0.3,0-0.6,0-0.8,0.1c-0.2,0-0.5,0.1-0.7,0.2s-0.4,0.2-0.5,0.3c-0.1,0.1-0.3,0.3-0.3,0.6
		c-0.1,0.2-0.1,0.5-0.1,0.8c0,0.4,0.1,0.7,0.2,1c0.1,0.3,0.3,0.5,0.5,0.6c0.2,0.1,0.5,0.2,0.8,0.3c0.3,0.1,0.6,0.1,1,0.1h8.7v1.1
		h-8.7c-0.4,0-0.8,0-1.1-0.1s-0.6-0.2-0.9-0.3c-0.3-0.1-0.5-0.3-0.7-0.6c-0.2-0.2-0.3-0.5-0.5-0.9S132.5,46.8,132.5,46.3z"/>
	<path class="st1" d="M132.7,54.3h11.9v0.8l-9.3,3.8h9.3v1h-11.9v-0.8l9.4-3.8h-9.4V54.3z"/>
	<path class="st1" d="M132.7,64.9h11.9V66h-11.9V64.9z"/>
	<path class="st1" d="M130.3,76.4c0.3-0.5,1-1.2,2.2-2.1c0-0.1,0-0.2,0-0.4c0-0.6,0.1-1.1,0.3-1.5c0.2-0.4,0.4-0.7,0.8-1
		c0.3-0.2,0.7-0.4,1.2-0.5c0.4-0.1,0.9-0.2,1.5-0.2h5c0.6,0,1,0.1,1.5,0.2c0.4,0.1,0.8,0.3,1.1,0.5s0.6,0.6,0.7,1
		c0.2,0.4,0.3,0.9,0.3,1.5c0,0.6-0.1,1.1-0.3,1.5c-0.2,0.4-0.4,0.7-0.7,1c-0.3,0.2-0.7,0.4-1.1,0.5s-0.9,0.2-1.5,0.2h-5
		c-0.4,0-0.8,0-1.2-0.1c-0.4-0.1-0.7-0.2-1-0.3s-0.6-0.3-0.8-0.6c-0.2-0.2-0.4-0.5-0.5-0.9c-0.3,0.2-0.6,0.4-0.8,0.7
		s-0.5,0.5-0.6,0.7L130.3,76.4z M133.6,73c-0.1,0.3-0.2,0.6-0.2,1c0,0.4,0.1,0.7,0.2,1c0.1,0.3,0.3,0.5,0.5,0.6
		c0.2,0.1,0.5,0.2,0.8,0.3c0.3,0.1,0.6,0.1,1,0.1h5.4c0.4,0,0.7,0,1-0.1c0.3-0.1,0.5-0.2,0.8-0.3c0.2-0.1,0.4-0.3,0.5-0.6
		c0.1-0.3,0.2-0.6,0.2-1c0-0.4-0.1-0.7-0.2-1c-0.1-0.3-0.3-0.5-0.5-0.6c-0.2-0.1-0.5-0.2-0.8-0.3c-0.3-0.1-0.6-0.1-1-0.1h-5.4
		c-0.4,0-0.8,0-1,0.1s-0.6,0.2-0.8,0.3C133.9,72.5,133.7,72.7,133.6,73z"/>
	<path class="st1" d="M132.5,84.8c0-0.5,0.1-0.9,0.2-1.3c0.1-0.4,0.3-0.7,0.5-0.9c0.2-0.2,0.4-0.4,0.7-0.5c0.3-0.1,0.6-0.2,0.9-0.3
		c0.3-0.1,0.7-0.1,1.1-0.1h8.7v1.1h-8.7c-0.3,0-0.6,0-0.8,0.1c-0.2,0-0.5,0.1-0.7,0.2s-0.4,0.2-0.5,0.3c-0.1,0.1-0.3,0.3-0.3,0.6
		c-0.1,0.2-0.1,0.5-0.1,0.8c0,0.4,0.1,0.7,0.2,1c0.1,0.3,0.3,0.5,0.5,0.6c0.2,0.1,0.5,0.2,0.8,0.3c0.3,0.1,0.6,0.1,1,0.1h8.7v1.1
		h-8.7c-0.4,0-0.8,0-1.1-0.1s-0.6-0.2-0.9-0.3c-0.3-0.1-0.5-0.3-0.7-0.6c-0.2-0.2-0.3-0.5-0.5-0.9S132.5,85.2,132.5,84.8z"/>
	<path class="st1" d="M132.7,92.7h11.9V97h-0.9v-3.2h-4.5v2.6h-0.8v-2.6h-4.9v3.2h-0.8V92.7z"/>
	<path class="st1" d="M132.7,101.5h11.9v1.1h-11.1v3.4h-0.8V101.5z"/>
	<path class="st1" d="M132.7,112h4l8-2.7v1.1l-6.6,2.1l6.6,2.1v1.1l-8-2.6h-4V112z"/>
	<path class="st1" d="M132.7,125.9h11.9v2.6c0,0.5-0.1,0.9-0.2,1.3s-0.3,0.7-0.5,0.9c-0.2,0.2-0.4,0.4-0.7,0.6
		c-0.3,0.2-0.6,0.3-1,0.3c-0.3,0.1-0.7,0.1-1.2,0.1h-4.7c-0.6,0-1.1-0.1-1.5-0.2s-0.8-0.3-1.2-0.5c-0.3-0.2-0.6-0.6-0.8-1
		c-0.2-0.4-0.3-0.9-0.3-1.5V125.9z M133.5,127.1v1.5c0,0.4,0.1,0.7,0.2,0.9c0.1,0.3,0.2,0.5,0.4,0.6c0.2,0.1,0.4,0.3,0.7,0.3
		s0.5,0.1,0.8,0.2c0.3,0,0.6,0,1,0h4.5c0.4,0,0.7,0,1,0s0.5-0.1,0.8-0.2c0.2-0.1,0.4-0.2,0.6-0.4s0.3-0.4,0.3-0.6
		c0.1-0.3,0.1-0.6,0.1-0.9v-1.5H133.5z"/>
	<path class="st1" d="M132.7,136.6h11.9v4.3h-0.9v-3.2h-4.5v2.6h-0.8v-2.6h-4.9v3.2h-0.8V136.6z"/>
	<path class="st1" d="M132.7,145.4h11.9v1.1h-11.1v3.4h-0.8V145.4z"/>
	<path class="st1" d="M132.7,154h11.9v1.1h-11.9V154z"/>
	<path class="st1" d="M132.5,163c0-0.5,0.1-0.9,0.2-1.2c0.1-0.4,0.3-0.6,0.5-0.9s0.5-0.4,0.8-0.5c0.3-0.1,0.7-0.2,1-0.3
		c0.4-0.1,0.8-0.1,1.2-0.1h4.7c0.5,0,0.9,0,1.2,0.1c0.4,0.1,0.7,0.2,1,0.3c0.3,0.1,0.6,0.3,0.8,0.6c0.2,0.2,0.4,0.5,0.5,0.9
		s0.2,0.8,0.2,1.2c0,0.5-0.1,1-0.2,1.3c-0.2,0.4-0.4,0.7-0.7,0.9c-0.3,0.2-0.7,0.4-1.1,0.5c-0.4,0.1-0.9,0.1-1.4,0.1h-0.7v-1.1h0.7
		c0.4,0,0.8,0,1.1-0.1c0.3,0,0.5-0.1,0.8-0.2s0.4-0.3,0.5-0.5c0.1-0.2,0.2-0.5,0.2-0.9c0-0.4-0.1-0.7-0.2-1
		c-0.1-0.3-0.3-0.5-0.6-0.6c-0.3-0.1-0.5-0.2-0.8-0.3s-0.7-0.1-1.1-0.1h-5.1c-0.9,0-1.6,0.1-2,0.4c-0.4,0.3-0.6,0.8-0.6,1.5
		c0,0.3,0,0.5,0.1,0.8c0.1,0.2,0.2,0.4,0.3,0.5c0.1,0.1,0.3,0.2,0.6,0.3c0.2,0.1,0.5,0.1,0.7,0.2s0.5,0,0.9,0h0.8v1.1h-0.7
		c-0.4,0-0.8,0-1.2-0.1s-0.7-0.1-1-0.3c-0.3-0.1-0.6-0.3-0.8-0.5c-0.2-0.2-0.4-0.5-0.5-0.8C132.6,163.8,132.5,163.4,132.5,163z"/>
	<path class="st1" d="M132.7,170.5h11.9v1.1h-11.9V170.5z"/>
	<path class="st1" d="M132.5,179.5c0-0.6,0.1-1.1,0.3-1.5s0.4-0.7,0.8-1c0.3-0.2,0.7-0.4,1.2-0.5c0.4-0.1,0.9-0.2,1.5-0.2h5
		c0.6,0,1.1,0.1,1.5,0.2c0.4,0.1,0.8,0.3,1.1,0.5c0.3,0.2,0.6,0.6,0.7,1c0.2,0.4,0.3,0.9,0.3,1.5c0,0.6-0.1,1-0.3,1.5
		s-0.4,0.7-0.7,1s-0.7,0.4-1.1,0.5s-0.9,0.2-1.5,0.2h-5c-0.4,0-0.8,0-1.2-0.1c-0.4-0.1-0.7-0.2-1-0.3c-0.3-0.1-0.6-0.3-0.8-0.6
		c-0.2-0.2-0.4-0.5-0.5-0.9C132.6,180.4,132.5,180,132.5,179.5z M133.6,178.5c-0.1,0.3-0.2,0.6-0.2,1s0.1,0.7,0.2,1s0.3,0.5,0.5,0.6
		c0.2,0.1,0.5,0.2,0.8,0.3c0.3,0.1,0.6,0.1,1,0.1h5.4c0.4,0,0.7,0,1-0.1c0.3-0.1,0.5-0.2,0.8-0.3s0.4-0.3,0.5-0.6
		c0.1-0.3,0.2-0.6,0.2-1s-0.1-0.7-0.2-1c-0.1-0.3-0.3-0.5-0.5-0.6s-0.5-0.2-0.8-0.3c-0.3-0.1-0.6-0.1-1-0.1h-5.4c-0.4,0-0.7,0-1,0.1
		c-0.3,0.1-0.5,0.2-0.8,0.3C133.9,178.1,133.7,178.3,133.6,178.5z"/>
	<path class="st1" d="M132.5,190.3c0-0.5,0.1-0.9,0.2-1.3s0.3-0.7,0.5-0.9s0.4-0.4,0.7-0.5c0.3-0.1,0.6-0.2,0.9-0.3
		c0.3-0.1,0.7-0.1,1.1-0.1h8.7v1.1h-8.7c-0.3,0-0.6,0-0.8,0.1s-0.5,0.1-0.7,0.2c-0.2,0.1-0.4,0.2-0.5,0.3s-0.3,0.3-0.3,0.6
		c-0.1,0.2-0.1,0.5-0.1,0.8c0,0.4,0.1,0.7,0.2,1c0.1,0.3,0.3,0.5,0.5,0.6c0.2,0.1,0.5,0.2,0.8,0.3c0.3,0.1,0.6,0.1,1,0.1h8.7v1.1
		h-8.7c-0.4,0-0.8,0-1.1-0.1s-0.6-0.2-0.9-0.3c-0.3-0.1-0.5-0.3-0.7-0.6s-0.3-0.5-0.5-0.9S132.5,190.7,132.5,190.3z"/>
	<path class="st1" d="M132.5,200.8c0-0.9,0.3-1.7,0.9-2.1c0.6-0.5,1.4-0.8,2.4-0.8l0.3,1c-0.3,0-0.6,0.1-0.8,0.1
		c-0.2,0-0.5,0.1-0.7,0.2s-0.4,0.2-0.6,0.4c-0.1,0.1-0.3,0.3-0.4,0.5c-0.1,0.2-0.1,0.5-0.1,0.8c0,1.1,0.6,1.7,1.7,1.7
		c0.3,0,0.5,0,0.7-0.1c0.2-0.1,0.4-0.2,0.7-0.3c0.2-0.1,0.4-0.3,0.6-0.4s0.4-0.4,0.6-0.6l2-2.1c0.7-0.7,1.5-1.1,2.4-1.1
		c0.8,0,1.4,0.2,1.9,0.7c0.4,0.5,0.7,1.1,0.7,2c0,0,0,0,0,0.1c0,0.9-0.2,1.5-0.7,2c-0.5,0.5-1.3,0.7-2.3,0.8l-0.2-1
		c0.8-0.1,1.4-0.2,1.8-0.5c0.4-0.3,0.6-0.7,0.6-1.3c0,0,0-0.1,0-0.1c0-0.5-0.2-0.9-0.4-1.2c-0.3-0.3-0.6-0.5-1.2-0.5
		c-0.3,0-0.6,0.1-0.9,0.2c-0.3,0.1-0.5,0.3-0.8,0.7l-2,2.1c-0.5,0.5-1,1-1.6,1.3s-1.1,0.5-1.7,0.5c-0.9,0-1.5-0.3-2-0.8
		C132.8,202.3,132.5,201.6,132.5,200.8z"/>
</g>
</svg>
