<?xml version="1.0" encoding="utf-8"?>
<!-- Generator: Adobe Illustrator 22.0.1, SVG Export Plug-In . SVG Version: 6.00 Build 0)  -->
<svg version="1.1" id="Layer_1" xmlns="http://www.w3.org/2000/svg" xmlns:xlink="http://www.w3.org/1999/xlink" x="0px" y="0px"
	 viewBox="0 0 40 22.8" style="enable-background:new 0 0 40 22.8;" xml:space="preserve">
<style type="text/css">
	.st0{fill:#B4892D;}
	.st1{fill:#231F20;}
</style>
<path class="st0" d="M27.6,20.6c-0.1,0-0.2,0.8-0.3,0.9c-1.2,0.4-1.6,0.6-2.1,0.5c0-1.2,1.3-2.1,2.4-4.1c-0.6-0.6-1.4-1.8-1.7-2
	c-2.2,1-5.1,0.8-6,0.7c-0.1,0.9-1,1.8-1.2,1.9c-0.1,0.4-0.2,0.5-0.1,0.6c0.5,0.4,0.6,1.2,0.5,1.4c0-0.1-0.3-0.5-0.5-0.5
	c0,0.3-0.1,1.2-0.3,1.4C17.9,22,17,22,16.7,22c-0.3-0.7,0.7-1.8,0.6-2.5c-0.2-0.5-0.4-0.8-0.6-1.3c-0.1-0.3-0.2-1.2-0.3-1.2
	c-0.2,0-0.4,1-0.7,1.6c-0.3,0.5-1.1,0.6-1.5,1.2c0.3,0.5,0.3,1.9,0.2,1.9c-0.1,0-0.3-0.7-0.5-0.7c-0.1,0-0.1,1.1-0.5,1.5
	c-0.3,0.3-1.3,0-1.9,0.4c-0.1,0-0.1-0.9,0.7-2c0.5-1.1,1.1-2.6,0.9-2.9c-0.5-0.7-0.5-1.5-0.5-2.3c-0.8,0.6-2.7,1.3-4.1,0.9
	c-2.3-0.6-3.2-1.2-5.3-0.2c-0.2-0.1,0.1-0.6,0.6-1c-0.6-0.1-1.6,0-2.1-0.6c-1-1.1-1.9-2.6-1.6-2.8c0.2-0.1,0.9,0.1,1.7-0.3
	c1.9-1.2,3.9-2.3,5-4c-0.6,0-1-0.1-1.3-0.5C5.2,6.7,4.7,5.7,3.5,5.7c0-0.7,4.5-1,5.7-0.2c11.4-8.7,25.1-5.3,26.4-1.2
	c1.1,1.3,2.7,2.2,4.3,2c-1,1.5-3.7,0.4-4.1-0.3c0,0-0.1,0-0.1,0c0.3,2.4-0.8,4.3-1.5,5.6c-0.2,1.1,0.5,3.2,0.1,3.9
	c-0.5,0.7-1.3,2.2-1.5,3.1c-0.5,1.6,0.1,2-0.5,2.5c-0.1-0.4-0.2-0.4-0.3-0.4c-0.2,0-0.2,0.9-0.5,1.3c-0.4,0.5-1,0.2-2,0.7
	c-0.7-0.5,1.6-2.7,1.9-5.1c-0.4-0.8-1.3-1.5-1.7-1.6c-0.4,3.1-1.6,3.3-1.6,3.6c0,0.9-0.2,1.6-0.4,1.7C27.8,20.9,27.7,20.6,27.6,20.6
	z"/>
<path class="st1" d="M-42.7,188.4c0.2,0.1,0,0.1,0.4,0.2C-42.6,188.5-42.4,188.5-42.7,188.4z"/>
<path class="st1" d="M315.9,296.8c0.1,0.4,0.3,1.1,0.5,1.5C316.4,297.5,316.3,297.2,315.9,296.8z"/>
<path class="st1" d="M316.6,298.8c0.1,0.2,0.1,0.4,0.2,0.5c0.1,0,0.1,0,0.2,0C316.8,298.9,316.9,299.1,316.6,298.8z"/>
</svg>
