<?xml version="1.0" encoding="utf-8"?>
<!-- Generator: Adobe Illustrator 21.1.0, SVG Export Plug-In . SVG Version: 6.00 Build 0)  -->
<svg version="1.1" id="Layer_1" xmlns="http://www.w3.org/2000/svg" xmlns:xlink="http://www.w3.org/1999/xlink" x="0px" y="0px"
	 viewBox="0 0 50 45.4" style="enable-background:new 0 0 50 45.4;" xml:space="preserve">
<style type="text/css">
	.st0{fill:#4F4F4F;}
</style>
<path class="st0" d="M46.5,0c0.1,0.1,0.1,0.4,0,0.5c-2.8,2.7-5.6,2-6.9,2c-0.2,0.2,0,11.3,0.2,11.6c0.1,0.1,0.4,0.1,0.7,0.2
	c0.1,0.1,0.1,0.2,0.1,0.3c-0.8,0.4-3,1-3.1,1c0,0,0-0.1,0.1-0.4c0.1-0.2,0.4-0.3,0.5-0.6c0-0.3,0.1-12.3-0.1-12.4
	c-1.5-0.8-4.9,0.5-5.5,1c-0.1,0-0.2,0-0.3,0c-0.1-0.1,0-0.3,0.1-0.4c0.4-0.3,1.9-1.4,5.9-2.1c1.2-0.2,2.7,0.5,4.3,0.7
	c1.1,0.1,2.1,0.2,3.5-1.2C46.2,0.1,46.4-0.1,46.5,0z"/>
<path class="st0" d="M27.1,4c0.1,0,0.1,0,0.2,0c-0.1,0.4,0.5,0.8,0.4,0.9c-0.9,1.2-0.9,2.1-0.4,2.7c0.2,0.2,0.2,0.4,0,0.6
	c-0.1,0-0.2-0.2-0.4-0.5c-0.1-0.3-0.2-0.7-0.5-0.6c-0.3,0.1-1.9,0.9-2.4,1.2c0,1.9,0,3.8,0.1,4.5c0.4-0.1,1.1,0,1.4-0.3
	c0.5-0.5,0.5-1,0.6-1.1c0.6,0.2,0.4,0.8,0.4,1.3c0,0.7,0.4,1.1-0.2,1.3c-0.4-0.6-1.4-0.4-2.1-0.2c-0.1,0.8-0.1,4.9,0,5
	c1.1-0.2,2.8-0.4,3.1-2.1c0.1,0,0.1-0.1,0.2-0.1c0,0,0.1,0.1,0.1,0.1c0,0.6,0,2.2-0.7,2.5c-0.9,0.4-3.6,1.2-4.8,1.5
	c-0.1,0-0.4-0.2-0.3-0.3c0.1-0.2,0.7-0.4,0.7-0.9c0-2.8,0-9.5-0.1-10.3c-0.7,0.4-1.1,0.2-1,0.1c1.1-1.4,0.9-1.3,1.1-1.6
	c1.2-0.5,2.9-1.3,3.7-1.7C26.4,5.9,26.9,5.3,27.1,4z"/>
<path class="st0" d="M36.5,15.4c0.2,0.2,0.7,0.1,0.9,0.2c0,0,0,0.1,0,0.2c-0.3,0.1-1.6,0.5-2.1,0.8c0,0-0.3,0.1-0.3-0.2
	c0-0.4,0.8-0.7,0.8-0.9c-1.5-3.8-2.8-3.7-4.8-3.6c-0.2,0-0.4,3.5-0.6,4.7c-0.1,0.9,0.4,0.6,0.8,0.8c0.4,0.2,0.2,0.5-0.1,0.6
	c-0.8,0.2-2,0.6-2.9,0.9c-0.2,0.1-0.4-0.1-0.3-0.2c0-0.1,0.8-0.5,0.9-0.9c0.5-3.4,1.5-12.7,1.6-13.9c-0.2,0-0.2-0.1-0.1-0.3
	c0.2-0.3,0.8-0.6,1.2-0.8c0.2-0.1,0.2,0.2,0.4,0.4c-0.1,0.6-0.2,1.6-0.2,2.2C32,6.4,35.7,13.9,36.5,15.4z M31.3,6.6
	c-0.1,0.8-0.4,2.8-0.4,3.3c0.7-0.1,1.7,0.2,2.6,1.1C33.1,10.1,31.5,7,31.3,6.6z"/>
<path class="st0" d="M10.8,36.9c-0.1-0.4-0.2-1.2-1.3-1.6c-0.4-0.1-0.8-0.2-1.1-0.1c-0.5,0.1-0.6,0.6-0.8,0.4
	c-0.1-0.1-0.2-0.4,0.7-0.7c0.9-0.3,2.6,0.1,3.4-1.4c0.4-0.8,0.5-1.9,0.3-2.8c-0.2-1-1-1.5-0.6-1.8c0.1-0.1,2.5,2.3,2.9,3.2
	c1.2,2.3-1,3.7-1.1,6c0,1.6,1.3,2.9,2.3,3.6c1.7,1.2,4.8,0.9,6.1-1.2c0.9-1.3,1.2-3.5,0-5.4c-1.1-1.7-4.5-2.5-5.9-3.2
	c-3.4-1.7-3.9-4.3-3.5-5.9c0.6-2.3,3.2-3.4,4.4-3.5c0.1-3.4,0-4.1,0.2-9.3c-0.6,0.6-6.4,7.4-5.8,8.7c0.5,1,1.8,0.1,2.2-0.7
	c0.1,0.1,0.2,0.2,0.3,0.3c-0.9,2.3-3.2,2.5-4,1.2c-0.6-0.9,0.1-2.9,1-4.1c-2-2.2-4.1-2.8-4.9-3.2c-0.2,0.2-0.5,20.2-0.2,20.4
	C6.4,35.8,6.4,35,7.2,35c-1.4,3.5-3.9,1-5.3,3.8c-0.4,0,0-1.7,1.5-2.7c0-8,0-19.3,0-21.6c-0.4-1.3-2.4-0.6-3.2-0.2
	c-0.1,0-0.4-0.3-0.2-0.5c2-1.6,3.9-2.7,12.3,2.1c5.8-8.3,9.3-8.9,9.6-8.3c-1.1,0.8-2.5,2.3-2.6,2.9c-0.2,2.3,0,10.8,0.2,12.3
	c0.8,0.4,1.5,0.8,1.8,1.1c0.3-0.6,0.6-1.1,0.9-0.9c0.3,0.2-0.5,1.5,0,2.8c0.7,1.6,1.4,4.4,0.1,4.4c-0.6,0,0.3-3.3-3.8-5.1
	c-2.9-1.3-3.7,0.9-3.7,1.1c0-0.1-1.1,2.3,4.1,4.2c9.6,3.7,6.4,13,1.2,14.6C13.4,47.2,9.3,39.4,10.8,36.9z"/>
<path class="st0" d="M40.1,25.4c-0.1,0.1-0.4-0.1-0.6-0.4c-0.1-0.4,0-1.4-0.1-1.5c-0.2-0.1-3.7-0.2-3.9,0.2c-0.3,1.3-0.1,4.1,0,4.3
	c0,0.1,1.6,0.2,2.4,0c0.4,0,0.1-0.5,0.2-0.6c0.4,0,0.4,0.3,0.5,0.9c0,0.4,0.2,0.8,0.2,1.1c0,0.3-0.5,0.4-0.6,0.4
	c-0.2-0.1,0.2-0.6-0.1-0.7c-0.9-0.1-2.4-0.1-2.5,0c-0.1,0.3-0.2,3.9,0,4.1c0.1,0.1,2,0.1,3.6,0.1c0.5,0,1.1-1,1.4-1.1
	c0.2,0,0.5,0,0.5,0.3c-0.2,0.6-0.8,1.8-1.2,1.7c-3.2-0.2-5.6,0.1-5.8-0.1c-0.1-0.2,0.4-0.6,0.4-1c0-0.4,0-6.2,0-9.5
	c-0.2-0.3-0.6-0.2-0.7-0.4c0-0.1,0.4-0.5,0.6-0.7c0.1-0.1,3.6,0.1,5.3-0.1c1-0.1,0.6-0.7,0.7-0.7c0,0,0.7,0.4,0.5,1
	c-0.2,0.7-0.5,0.9-0.6,1.2C39.9,24.9,40.2,25.3,40.1,25.4z"/>
<path class="st0" d="M32.4,22.7c-0.1-0.1-2.3-0.1-2.4,0c0,0-0.3,0.2-0.2,0.4c0.2,0.4,0.6,0.4,0.8,0.7c0.1,1.6,0.2,3.2,0.1,3.8
	c-0.6,0.1-1,0-3.3,0c-0.2-1.6-0.2-3.1-0.1-3.8c0-0.4,0.9-0.4,1-0.6c0.1-0.2-0.2-0.4-0.2-0.4c-1.3,0-2.2,0-3,0
	c-0.1,0.1-0.4,0.2-0.3,0.5c0,0.1,0.9,0.2,1,0.7c0.3,2.3,0.1,8.5,0.1,9c0,0.5-0.8,0.9-0.9,1.1c0,0,0.1,0.3,0.5,0.3c0.7,0,2.1,0,2.4,0
	c0.3,0,0.4-0.1,0.4-0.3c0-0.2-1.1-0.7-1.1-1.2c0-0.6,0-2.9,0-4.3c0,0,3.4,0.1,3.4,0c0.1,0.7,0,3.5,0.1,4.3c0,0.4-1.3,1-1.3,1.2
	c0,0.1,0.1,0.3,0.4,0.3c0.6,0,2,0,2.9,0c0.2,0,0.5-0.2,0.3-0.4c-0.4-0.3-1.1-0.7-1.1-1.1c0-2.5-0.1-7.4-0.1-9.1
	c0-0.4,0.6-0.5,0.7-0.6C32.7,22.9,32.4,22.8,32.4,22.7z"/>
<path class="st0" d="M45.3,34.2c-0.8-0.1-3.7,0.1-4.1,0c0,0-0.2-0.3-0.1-0.4c0.3-0.2,0.8-0.3,1-0.6c0.2-0.5,0.2-8.8-0.1-9.3
	c-0.1-0.2-0.3-0.4-0.9-0.4c0-0.2,0-0.4,0-0.6c0.1,0,0.1-0.1,0.2-0.2c0.8-0.1,2,0,3.8,0c0.6,0,4.9,1.5,4.9,5.9
	C50,33.9,45.6,34.2,45.3,34.2z M43.2,23.6c-0.1,0.2-0.1,9.1,0,9.3c0.1,0,5.7,0.4,5.5-4.2C48.6,23,43.6,23.6,43.2,23.6z"/>
<path class="st0" d="M22.8,23.7c0.2,0,0.2,0.3,0.2,0.6c-0.3,1.4,1,3.2,0.6,5.1c0,0.1-0.1,0.2-0.2,0.2c-0.1,0-0.1-0.2-0.1-0.3
	c0.1-1.8-1.2-3.8-0.9-5.1C22.6,23.6,22.6,23.7,22.8,23.7z"/>
<path class="st0" d="M16,28.3c-0.1,0.1-0.2,0-0.5-0.2c-0.5-0.6-0.5-1.7,0-2.3c0.1-0.1,0.4-0.4,0.5-0.2c0.1,0.1-0.1,0.3-0.2,0.4
	c-0.2,0.2-0.5,1.2,0,1.9C16,28.1,16.1,28.2,16,28.3z"/>
<path class="st0" d="M41.7,32.7C41.7,32.7,41.7,32.7,41.7,32.7C41.8,32.7,41.7,32.7,41.7,32.7C41.7,32.8,41.7,32.8,41.7,32.7
	C41.7,32.8,41.7,32.8,41.7,32.7z"/>
<path class="st0" d="M25.6,35.9c0.1,0,0.2,0.1,0.2,0.2c1.1,3.1-0.3,6.9-2.9,8.6c-0.1,0-0.1,0.1-0.2,0c0,0-0.1-0.1,0-0.2
	c0.7-0.8,4-3.4,2.9-8.4C25.5,36,25.5,35.9,25.6,35.9z"/>
<path class="st0" d="M16.2,41.1c-0.1,0.1-0.5-0.1-0.7-0.3c-1.4-1-1.7-2.5-1.3-3.9c0-0.2,0.1-0.3,0.2-0.3c0.1,0,0.2,0.1,0.1,0.3
	c0,0.3-0.6,2.3,1.1,3.6C15.8,40.7,16.3,40.9,16.2,41.1z"/>
<path class="st0" d="M43.7,24c0,0.7,0,8,0,8.5c0,0.1-0.4,0-0.4,0c0-0.7,0-8,0-8.4C43.3,23.9,43.7,23.9,43.7,24z"/>
<path class="st0" d="M36,29.4c0,0.7,0,3.2,0,3.7c0,0.1-0.4,0-0.4,0c0-0.7,0-3.2,0-3.6C35.6,29.3,36,29.3,36,29.4z"/>
<path class="st0" d="M32.6,23.8c0,0.7,0,8.7,0,9.2c0,0.1-0.4,0.1-0.4,0c0-0.7,0-8.8,0-9.2C32.2,23.7,32.6,23.7,32.6,23.8z"/>
<path class="st0" d="M36,23.8c0,0.7,0,3.5,0,4c0,0.1-0.4,0.1-0.4,0c0-0.7,0-3.6,0-4C35.6,23.8,36,23.8,36,23.8z"/>
<path class="st0" d="M27.9,23.9c0,0.7,0,3,0,3.5c0,0.1-0.4,0.1-0.4,0c0-0.7,0-3.1,0-3.5C27.5,23.8,27.9,23.8,27.9,23.9z"/>
<path class="st0" d="M27.9,28.7c0,0.7,0,3.8,0,4.3c0,0.1-0.4,0-0.4-0.2c0-0.7,0-3.6,0-4C27.5,28.7,27.9,28.7,27.9,28.7z"/>
<path class="st0" d="M40.3,3c0,0.7,0,10.3,0,10.8c0,0.1-0.4,0-0.4,0c0-0.7,0-10.4,0-10.9C39.9,2.8,40.3,2.9,40.3,3z"/>
<path class="st0" d="M31.8,7.8c0,0.7-0.1,1.4-0.1,1.9c0,0.1-0.4,0-0.4,0c0-0.7,0.1-1.6,0.1-2C31.4,7.6,31.8,7.7,31.8,7.8z"/>
<path class="st0" d="M31.4,12.2c0,0.7-0.4,4.3-0.4,4.8c0,0.1-0.4-0.1-0.4-0.1c0-0.7,0.4-4.3,0.4-4.8C31,12,31.4,12.1,31.4,12.2z"/>
<path class="st0" d="M20,9.9c0,0.7,0,12.3,0,12.8c0,0.1-0.4,0.1-0.4,0c0-0.7,0-11.9,0-12.3C19.7,10.3,20,9.8,20,9.9z"/>
<path class="st0" d="M24.7,13.9c0,0.7,0,4,0,4.5c0,0.1-0.4,0.1-0.4,0c0-0.7,0-4,0-4.4C24.4,13.8,24.7,13.8,24.7,13.9z"/>
<path class="st0" d="M24.6,8.4c0,0.7,0,3.6,0,4.2c0,0.1-0.4,0.1-0.4,0c0-0.7,0-3.5,0-3.9C24.2,8.5,24.6,8.3,24.6,8.4z"/>
<path class="st0" d="M6.4,16.1c0,0.7,0,18.1,0,18.6C6.4,34.7,6,35,6,34.9c0-0.7,0-18.5,0-19C6.1,15.8,6.4,16,6.4,16.1z"/>
<path class="st0" d="M6,6.3c0-0.4,0-0.6,0-0.8C5.8,5.4,5.7,5.4,5.6,5.4c-0.2,0-0.3,0-0.5,0c-0.2,0-0.4,0-0.7,0c-0.4,0-0.8,0-1.1,0
	c-0.3,0-0.4,0-0.4,0L2.3,5.5c0,0-0.1,0.6-0.1,1c0,0,0.1,0,0.1,0.1c0.2-0.9,0.6-0.8,1.3-0.7c0.3,0,0.2,2.1,0.1,2.9
	c0,0.2-0.1,0.3-0.4,0.4C3,9.2,3.2,9.4,3.3,9.4l0.8,0l0.7,0c0.3,0,0.2-0.2,0-0.2c-0.1,0-0.4-0.2-0.4-0.5c-0.1,0-0.1-2.6,0-2.8
	c0.1-0.1,0.8-0.1,1,0C5.7,6,6,6.5,6,6.5C6,6.5,6,6.5,6,6.3C6,6.4,6,6.4,6,6.3z"/>
<path class="st0" d="M10.4,9.1c-0.2,0-0.3-0.2-0.3-0.4V5.9c0-0.2,0.1-0.3,0.2-0.3c0.5-0.2,0-0.2,0-0.2H9.8c-0.2,0-0.4,0-0.6,0
	c-0.6,0,0.2,0.1,0.2,0.5l0,1.1C9.3,7.1,7.7,7,7.7,7l0-1.2c0-0.1,0-0.2,0.1-0.3C8,5.6,8.1,5.4,8,5.4c-0.2,0-0.3,0-0.5,0H6.7
	c-0.3,0,0,0.2,0.1,0.2C6.9,5.6,7,5.8,7,5.9s0,3,0,3c0,0.2-0.1,0.2-0.1,0.2c-0.1,0-0.3,0.2,0,0.2c0.2,0,0.6,0,0.6,0c0,0,0.3,0,0.5,0
	c0.3,0,0-0.2-0.1-0.2C7.7,9.1,7.6,8.9,7.6,8.9c0-0.1-0.1-1.3,0-1.5c0.1-0.1,1.6-0.1,1.8,0c0.1,0.2,0,1.4,0,1.4
	c0,0.1-0.1,0.3-0.3,0.4S9.1,9.4,9.1,9.4c0.1,0,0.5,0,0.6,0c0.3,0,0.5,0,0.7,0C10.6,9.4,10.5,9.2,10.4,9.1z"/>
<path class="st0" d="M13.1,8.9c0,0-0.6,0-0.7-0.2c-0.1-0.2-0.1-1.3,0-1.4c0-0.1,0.7,0,0.7,0c0.3,0,0.5,0,0.5,0c0.1,0.1,0,0,0.1,0.2
	c0,0.3,0.2,0.1,0.2,0c-0.2-0.3,0.1-0.5,0-0.9c-0.1-0.1-0.2-0.2-0.2,0c0,0.3-0.1,0.2-0.2,0.2s-1.1,0.1-1.2,0c-0.1-0.1-0.2-0.7,0-1.4
	c2.3-0.3,2.1,0.4,2.4,0.5c0.1,0,0.1,0,0.1-0.1c0-0.1-0.3-0.7-0.3-0.7c0.2,0-1.6,0-2.7,0c-0.2,0-0.4,0-0.5,0c-0.1,0-0.2,0-0.2,0.1
	c0,0,0.1,0,0.2,0c0.1,0,0.2,0,0.2,0c0,0,0.1,0.1,0.1,0.1c0,0,0,0.1,0,0.4c0,0,0,1.7,0,2.8c0,0.2-0.1,0.3-0.3,0.4c-0.3,0,0,0.2,0,0.2
	h0.4c0.8,0,2.8,0,2.8-0.1C14.8,9.2,15,8.8,15,8.7c0-0.1,0-0.3-0.2-0.3C14.7,8.4,14.6,8.9,13.1,8.9z"/>
</svg>
