<?xml version="1.0" encoding="utf-8"?>
<!-- Generator: Adobe Illustrator 21.1.0, SVG Export Plug-In . SVG Version: 6.00 Build 0)  -->
<svg version="1.1" id="Layer_1" xmlns="http://www.w3.org/2000/svg" xmlns:xlink="http://www.w3.org/1999/xlink" x="0px" y="0px"
	 viewBox="0 0 39.5 39.5" style="enable-background:new 0 0 39.5 39.5;" xml:space="preserve">
<style type="text/css">
	.st0{fill:#4F4F4F;}
	.st1{fill:none;stroke:#4F4F4F;stroke-width:2;stroke-miterlimit:10;}
</style>
<g>
	<path class="st0" d="M28.1,15.5c0,0.2,0,0.4,0,0.6c0,5.7-4.3,12.3-12.3,12.3c-2.4,0-4.7-0.7-6.6-1.9c0.3,0,0.7,0.1,1,0.1
		c2,0,3.9-0.7,5.4-1.8c-1.9,0-3.5-1.3-4-3c0.3,0,0.5,0.1,0.8,0.1c0.4,0,0.8,0,1.1-0.1c-2-0.4-3.4-2.2-3.4-4.2l0,0
		c0.6,0.3,1.2,0.5,2,0.5c-1.2-0.8-1.9-2.1-1.9-3.6c0-0.8,0.2-1.5,0.6-2.2c2.1,2.6,5.3,4.3,8.9,4.5c-0.1-0.3-0.1-0.7-0.1-1
		c0-2.4,1.9-4.3,4.3-4.3c1.2,0,2.4,0.5,3.1,1.4c1-0.2,1.9-0.6,2.7-1c-0.3,1-1,1.9-1.9,2.4c0.9-0.1,1.7-0.3,2.5-0.7
		C29.7,14.1,29,14.9,28.1,15.5L28.1,15.5z"/>
</g>
<path class="st1" d="M19.8,1C9.4,1,1,9.4,1,19.8s8.4,18.8,18.8,18.8s18.8-8.4,18.8-18.8S30.1,1,19.8,1L19.8,1z"/>
</svg>
